<?xml version="1.0" encoding="UTF-8"?> <svg xmlns="http://www.w3.org/2000/svg" width="1512" height="1994" viewBox="0 0 1512 1994" fill="none"> <g opacity="0.29"> <g opacity="0.5" filter="url(#filter0_f_15_401)"> <path d="M899.494 719.855C12.4792 726.533 -996.24 758.177 -1328.72 802.57C-1661.2 846.963 -2173.64 930.058 -2173.64 930.058C-3018.56 1057.54 -1832.01 1066.27 -1388.2 1021.5C-944.386 976.727 173.533 1072.34 1666.63 1140.26C3159.73 1208.18 3502.89 1097.76 3766.73 1021.5C4030.58 945.235 3434.26 840.892 2333.11 802.57C1231.97 764.248 2008.26 711.508 899.494 719.855Z" fill="url(#paint0_linear_15_401)"></path> </g> <g style="mix-blend-mode:screen" opacity="0.5" filter="url(#filter1_f_15_401)"> <path d="M297.799 715.312C93.9064 688.513 -29.472 693.05 -328.784 755.98C-628.097 818.911 -602.779 973.007 -476.753 1040.01C-350.726 1107 827.667 998.19 868.738 912.528C909.809 826.865 552.665 748.811 297.799 715.312Z" fill="#38C1C2"></path> </g> <g style="mix-blend-mode:overlay" opacity="0.7" filter="url(#filter2_f_15_401)"> <path d="M2144.22 669.999C1976.06 630.35 1934.02 576.894 1687.16 669.999C1440.3 763.105 1461.18 991.091 1565.12 1090.22C1669.06 1189.34 2336.32 969.142 2370.2 842.405C2404.07 715.667 2354.42 719.562 2144.22 669.999Z" fill="#86B9B4"></path> </g> <g opacity="0.5" filter="url(#filter3_f_15_401)"> <path d="M370.731 619.219C31.2679 625.897 -354.773 657.541 -482.013 701.934C-609.254 746.327 -805.367 829.421 -805.367 829.421C-1128.72 956.908 -674.625 965.635 -504.776 920.863C-334.928 876.09 92.9035 971.706 664.318 1039.62C1235.73 1107.54 1371.16 1002.27 1468.03 920.863C2763.31 -167.584 1340.79 740.256 919.383 701.934C497.972 663.612 795.061 610.871 370.731 619.219Z" fill="#2E454F"></path> </g> <g opacity="0.7" filter="url(#filter4_f_15_401)"> <path d="M272.981 718.381C-16.4627 675.927 -88.8238 618.689 -513.725 718.381C-938.626 818.073 -902.685 1062.19 -723.779 1168.32C-544.874 1274.46 603.637 1038.69 661.941 902.982C720.245 767.28 634.786 771.449 272.981 718.381Z" fill="#AF49BF"></path> </g> <g filter="url(#filter5_f_15_401)"> <path d="M1500.61 423.536C1358.76 354.819 1323.3 262.173 1115.07 423.536C906.833 584.9 924.447 980.026 1012.12 1151.82C1099.8 1323.61 1662.65 941.986 1691.23 722.335C1719.8 502.684 1677.92 509.433 1500.61 423.536Z" fill="#144849"></path> </g> <g style="mix-blend-mode:overlay" opacity="0.5" filter="url(#filter6_f_15_401)"> <path d="M794.414 644.441C626.252 604.791 584.211 551.335 337.351 644.441C90.4915 737.547 111.372 965.533 215.314 1064.66C319.255 1163.78 986.519 943.584 1020.39 816.846C1054.27 690.109 1004.62 694.003 794.414 644.441Z" fill="#8838ED"></path> </g> <g style="mix-blend-mode:overlay" opacity="0.5" filter="url(#filter7_f_15_401)"> <path d="M1524.43 714.727C1356.26 675.077 1314.22 621.621 1067.36 714.727C820.505 807.833 841.386 1035.82 945.327 1134.94C1049.27 1234.07 1716.53 1013.87 1750.41 887.132C1784.28 760.395 1734.63 764.289 1524.43 714.727Z" fill="#8838ED"></path> </g> </g> <defs> <filter id="filter0_f_15_401" x="-3268.48" y="-79.7272" width="7895.96" height="2039.88" filterUnits="userSpaceOnUse" color-interpolation-filters="sRGB"> <feFlood flood-opacity="0" result="BackgroundImageFix"></feFlood> <feBlend mode="normal" in="SourceGraphic" in2="BackgroundImageFix" result="shape"></feBlend> <feGaussianBlur stdDeviation="399.351" result="effect1_foregroundBlur_15_401"></feGaussianBlur> </filter> <filter id="filter1_f_15_401" x="-885.156" y="380.325" width="2076.62" height="999.974" filterUnits="userSpaceOnUse" color-interpolation-filters="sRGB"> <feFlood flood-opacity="0" result="BackgroundImageFix"></feFlood> <feBlend mode="normal" in="SourceGraphic" in2="BackgroundImageFix" result="shape"></feBlend> <feGaussianBlur stdDeviation="159.74" result="effect1_foregroundBlur_15_401"></feGaussianBlur> </filter> <filter id="filter2_f_15_401" x="1172.3" y="298.857" width="1527.12" height="1135.75" filterUnits="userSpaceOnUse" color-interpolation-filters="sRGB"> <feFlood flood-opacity="0" result="BackgroundImageFix"></feFlood> <feBlend mode="normal" in="SourceGraphic" in2="BackgroundImageFix" result="shape"></feBlend> <feGaussianBlur stdDeviation="159.74" result="effect1_foregroundBlur_15_401"></feGaussianBlur> </filter> <filter id="filter3_f_15_401" x="-1717.4" y="-415.347" width="4516.49" height="2275.46" filterUnits="userSpaceOnUse" color-interpolation-filters="sRGB"> <feFlood flood-opacity="0" result="BackgroundImageFix"></feFlood> <feBlend mode="normal" in="SourceGraphic" in2="BackgroundImageFix" result="shape"></feBlend> <feGaussianBlur stdDeviation="399.351" result="effect1_foregroundBlur_15_401"></feGaussianBlur> </filter> <filter id="filter4_f_15_401" x="-1648.71" y="-135.636" width="3126.12" height="2129.34" filterUnits="userSpaceOnUse" color-interpolation-filters="sRGB"> <feFlood flood-opacity="0" result="BackgroundImageFix"></feFlood> <feBlend mode="normal" in="SourceGraphic" in2="BackgroundImageFix" result="shape"></feBlend> <feGaussianBlur stdDeviation="399.351" result="effect1_foregroundBlur_15_401"></feGaussianBlur> </filter> <filter id="filter5_f_15_401" x="630.779" y="14.5195" width="1388.14" height="1499.96" filterUnits="userSpaceOnUse" color-interpolation-filters="sRGB"> <feFlood flood-opacity="0" result="BackgroundImageFix"></feFlood> <feBlend mode="normal" in="SourceGraphic" in2="BackgroundImageFix" result="shape"></feBlend> <feGaussianBlur stdDeviation="159.74" result="effect1_foregroundBlur_15_401"></feGaussianBlur> </filter> <filter id="filter6_f_15_401" x="-177.507" y="273.299" width="1527.12" height="1135.75" filterUnits="userSpaceOnUse" color-interpolation-filters="sRGB"> <feFlood flood-opacity="0" result="BackgroundImageFix"></feFlood> <feBlend mode="normal" in="SourceGraphic" in2="BackgroundImageFix" result="shape"></feBlend> <feGaussianBlur stdDeviation="159.74" result="effect1_foregroundBlur_15_401"></feGaussianBlur> </filter> <filter id="filter7_f_15_401" x="552.507" y="343.584" width="1527.12" height="1135.75" filterUnits="userSpaceOnUse" color-interpolation-filters="sRGB"> <feFlood flood-opacity="0" result="BackgroundImageFix"></feFlood> <feBlend mode="normal" in="SourceGraphic" in2="BackgroundImageFix" result="shape"></feBlend> <feGaussianBlur stdDeviation="159.74" result="effect1_foregroundBlur_15_401"></feGaussianBlur> </filter> <linearGradient id="paint0_linear_15_401" x1="679.5" y1="718.974" x2="3429.61" y2="884.526" gradientUnits="userSpaceOnUse"> <stop stop-color="#398B8C"></stop> <stop offset="1" stop-color="white"></stop> </linearGradient> </defs> </svg> 