<?xml version="1.0" encoding="UTF-8"?> <svg xmlns="http://www.w3.org/2000/svg" width="848" height="434" viewBox="0 0 848 434" fill="none"> <path opacity="0.5" d="M209.725 156.923C209.725 156.557 210.071 156.191 210.762 155.825C211.494 155.459 212.206 155.215 212.897 155.093C213.629 154.971 213.955 155.012 213.873 155.215L209.786 164.731C209.746 164.853 209.624 164.914 209.42 164.914C209.217 164.914 209.115 164.853 209.115 164.731L209.725 156.923ZM200.514 162.901C199.986 162.698 199.721 161.803 199.721 160.217C199.721 159.648 199.762 159.18 199.843 158.814C199.925 158.407 200.026 158.265 200.148 158.387L208.017 165.28C208.058 165.321 208.078 165.382 208.078 165.463C208.078 165.544 208.038 165.646 207.956 165.768C207.916 165.849 207.855 165.87 207.773 165.829L200.514 162.901ZM210.701 166.317C210.62 166.317 210.539 166.236 210.457 166.073C210.417 165.87 210.437 165.748 210.518 165.707L218.204 163.816C218.57 163.735 219.018 163.979 219.546 164.548C220.116 165.077 220.563 165.666 220.888 166.317C221.254 166.927 221.315 167.232 221.071 167.232L210.701 166.317ZM203.381 173.393C203.219 173.596 202.914 173.698 202.466 173.698C202.019 173.698 201.49 173.617 200.88 173.454C200.27 173.251 199.762 173.047 199.355 172.844C198.989 172.6 198.867 172.437 198.989 172.356L207.956 167.049L208.078 166.988C208.16 166.988 208.241 167.049 208.322 167.171C208.444 167.293 208.485 167.374 208.444 167.415L203.381 173.393ZM209.603 167.659V167.598C209.603 167.517 209.664 167.415 209.786 167.293C209.949 167.171 210.051 167.151 210.091 167.232L214.3 173.942C214.504 174.267 214.402 174.776 213.995 175.467C213.629 176.158 213.202 176.789 212.714 177.358C212.226 177.887 211.962 178.029 211.921 177.785L209.603 167.659ZM257.198 196.268C257.32 196.268 257.381 196.39 257.381 196.634C257.381 196.878 257.32 197 257.198 197C255.978 197 255.022 196.98 254.331 196.939L250.854 196.878L246.95 196.939C246.299 196.98 245.466 197 244.449 197C244.286 197 244.205 196.878 244.205 196.634C244.205 196.39 244.286 196.268 244.449 196.268C245.913 196.268 247.011 196.166 247.743 195.963C248.475 195.719 249.004 195.312 249.329 194.743C249.654 194.133 249.919 193.218 250.122 191.998L255.124 163.877C255.287 163.023 255.368 162.271 255.368 161.62C255.368 161.132 255.246 160.786 255.002 160.583C254.758 160.38 254.372 160.258 253.843 160.217C253.355 160.176 252.42 160.156 251.037 160.156H240.179C238.43 160.156 237.231 160.237 236.58 160.4C235.929 160.522 235.482 160.827 235.238 161.315C235.035 161.762 234.811 162.677 234.567 164.06L229.626 192.12C229.463 193.177 229.382 193.828 229.382 194.072C229.382 194.967 229.667 195.556 230.236 195.841C230.846 196.126 232.005 196.268 233.713 196.268C233.916 196.268 234.018 196.39 234.018 196.634C234.018 196.878 233.916 197 233.713 197C232.574 197 231.68 196.98 231.029 196.939L227.369 196.878L223.587 196.939C222.936 196.98 222.082 197 221.025 197C220.862 197 220.781 196.878 220.781 196.634C220.781 196.39 220.862 196.268 221.025 196.268C222.448 196.268 223.526 196.166 224.258 195.963C224.99 195.719 225.519 195.312 225.844 194.743C226.21 194.133 226.495 193.218 226.698 191.998L231.639 164.487C231.761 163.674 231.822 163.003 231.822 162.474C231.822 161.457 231.517 160.725 230.907 160.278C230.297 159.831 229.199 159.607 227.613 159.607C227.491 159.607 227.43 159.485 227.43 159.241C227.43 158.997 227.491 158.875 227.613 158.875C228.874 158.875 230.073 158.895 231.212 158.936C235.848 159.017 240.667 159.058 245.669 159.058C250.549 159.058 255.978 158.997 261.956 158.875H263.725C263.888 158.875 263.969 158.997 263.969 159.241C263.969 159.485 263.888 159.607 263.725 159.607C261.732 159.607 260.329 159.993 259.516 160.766C258.743 161.498 258.194 162.779 257.869 164.609L253.05 192.12C252.887 193.096 252.806 193.726 252.806 194.011C252.806 194.946 253.111 195.556 253.721 195.841C254.372 196.126 255.531 196.268 257.198 196.268ZM281.516 175.284C281.516 176.545 280.845 177.765 279.503 178.944C278.161 180.083 276.372 181.099 274.135 181.994C271.899 182.848 269.499 183.478 266.937 183.885C266.734 184.902 266.632 186.04 266.632 187.301C266.632 189.904 267.202 191.978 268.34 193.523C269.479 195.028 271.106 195.78 273.22 195.78C275.579 195.78 277.673 195.109 279.503 193.767H279.625C279.747 193.767 279.849 193.828 279.93 193.95C280.052 194.072 280.052 194.194 279.93 194.316C277.043 196.593 274.135 197.732 271.207 197.732C268.686 197.732 266.775 196.919 265.473 195.292C264.172 193.665 263.521 191.551 263.521 188.948C263.521 188.013 263.623 186.935 263.826 185.715C264.192 183.682 265.046 181.648 266.388 179.615C267.73 177.582 269.377 175.914 271.329 174.613C273.322 173.312 275.396 172.661 277.551 172.661C278.812 172.661 279.788 172.905 280.479 173.393C281.171 173.84 281.516 174.471 281.516 175.284ZM274.928 174.308C272.895 174.308 271.207 175.121 269.865 176.748C268.564 178.375 267.649 180.469 267.12 183.031C270.13 182.543 272.59 181.811 274.501 180.835C276.413 179.859 277.551 178.659 277.917 177.236C277.999 177.033 278.039 176.748 278.039 176.382C278.039 175.65 277.734 175.121 277.124 174.796C276.514 174.471 275.782 174.308 274.928 174.308ZM299.869 173.027C301.781 173.027 303.224 173.576 304.2 174.674C305.217 175.731 305.725 177.297 305.725 179.371C305.725 180.022 305.664 180.754 305.542 181.567C305.176 184.292 304.261 186.854 302.797 189.253C301.374 191.612 299.625 193.503 297.551 194.926C295.518 196.349 293.444 197.061 291.329 197.061C289.947 197.061 288.686 196.98 287.547 196.817L285.595 207.858C285.473 208.549 285.412 209.098 285.412 209.505C285.412 210.278 285.595 210.827 285.961 211.152C286.327 211.518 286.917 211.701 287.73 211.701C287.934 211.701 288.442 211.66 289.255 211.579H289.316C289.438 211.579 289.52 211.681 289.56 211.884C289.601 212.087 289.54 212.209 289.377 212.25L279.129 213.775C278.967 213.816 278.865 213.714 278.824 213.47C278.784 213.226 278.845 213.084 279.007 213.043C279.983 212.88 280.695 212.677 281.142 212.433C281.59 212.189 281.935 211.762 282.179 211.152C282.383 210.583 282.606 209.627 282.85 208.285L287.974 179.432L285.412 181.445H285.351C285.229 181.445 285.087 181.364 284.924 181.201C284.802 181.038 284.802 180.937 284.924 180.896C286.388 179.595 287.486 178.659 288.218 178.09L289.072 173.454C289.072 173.373 289.296 173.088 289.743 172.6C290.231 172.112 290.658 171.583 291.024 171.014C291.431 170.445 291.695 169.794 291.817 169.062C291.817 168.94 291.919 168.879 292.122 168.879C292.204 168.879 292.285 168.92 292.366 169.001C292.488 169.042 292.529 169.103 292.488 169.184L291.268 175.955C294.44 174.003 297.307 173.027 299.869 173.027ZM302.614 183.58C302.736 182.645 302.797 181.77 302.797 180.957C302.797 179.127 302.411 177.683 301.638 176.626C300.906 175.569 299.605 175.04 297.734 175.04C296.636 175.04 295.559 175.243 294.501 175.65C293.444 176.016 292.285 176.585 291.024 177.358L288.035 194.316C289.418 195.007 291.045 195.353 292.915 195.353C295.64 195.353 297.816 194.296 299.442 192.181C301.069 190.026 302.126 187.159 302.614 183.58ZM327.028 175.284C327.028 176.545 326.357 177.765 325.015 178.944C323.673 180.083 321.884 181.099 319.647 181.994C317.411 182.848 315.011 183.478 312.449 183.885C312.246 184.902 312.144 186.04 312.144 187.301C312.144 189.904 312.714 191.978 313.852 193.523C314.991 195.028 316.618 195.78 318.732 195.78C321.091 195.78 323.185 195.109 325.015 193.767H325.137C325.259 193.767 325.361 193.828 325.442 193.95C325.564 194.072 325.564 194.194 325.442 194.316C322.555 196.593 319.647 197.732 316.719 197.732C314.198 197.732 312.287 196.919 310.985 195.292C309.684 193.665 309.033 191.551 309.033 188.948C309.033 188.013 309.135 186.935 309.338 185.715C309.704 183.682 310.558 181.648 311.9 179.615C313.242 177.582 314.889 175.914 316.841 174.613C318.834 173.312 320.908 172.661 323.063 172.661C324.324 172.661 325.3 172.905 325.991 173.393C326.683 173.84 327.028 174.471 327.028 175.284ZM320.44 174.308C318.407 174.308 316.719 175.121 315.377 176.748C314.076 178.375 313.161 180.469 312.632 183.031C315.642 182.543 318.102 181.811 320.013 180.835C321.925 179.859 323.063 178.659 323.429 177.236C323.511 177.033 323.551 176.748 323.551 176.382C323.551 175.65 323.246 175.121 322.636 174.796C322.026 174.471 321.294 174.308 320.44 174.308ZM350.017 172.905C350.749 172.905 351.4 173.149 351.969 173.637C352.579 174.125 352.884 174.694 352.884 175.345C352.884 175.833 352.742 176.219 352.457 176.504C352.172 176.748 351.827 176.87 351.42 176.87C350.973 176.87 350.525 176.687 350.078 176.321C349.671 175.996 349.285 175.833 348.919 175.833C347.862 175.833 346.886 176.484 345.991 177.785L341.843 183.824L344.161 191.937C344.568 193.279 344.995 194.153 345.442 194.56C345.93 194.967 346.459 195.17 347.028 195.17C348.167 195.17 349.59 194.255 351.298 192.425C351.339 192.384 351.4 192.364 351.481 192.364C351.644 192.364 351.766 192.445 351.847 192.608C351.928 192.73 351.928 192.832 351.847 192.913C349.122 196.004 346.967 197.549 345.381 197.549C344.568 197.549 343.876 197.305 343.307 196.817C342.738 196.288 342.25 195.312 341.843 193.889L339.83 186.813L335.865 193.157C334.726 194.987 333.852 196.187 333.242 196.756C332.632 197.285 331.859 197.549 330.924 197.549C330.151 197.549 329.46 197.285 328.85 196.756C328.24 196.187 327.976 195.536 328.057 194.804C328.26 193.991 328.769 193.584 329.582 193.584C330.07 193.584 330.497 193.767 330.863 194.133C331.27 194.458 331.676 194.621 332.083 194.621C333.1 194.621 334.076 193.97 335.011 192.669L339.525 185.837L337.634 179.188C336.902 176.585 335.845 175.284 334.462 175.284C333.933 175.284 333.303 175.528 332.571 176.016C331.839 176.463 331.046 177.134 330.192 178.029C330.151 178.07 330.09 178.09 330.009 178.09C329.887 178.09 329.765 178.029 329.643 177.907C329.562 177.744 329.582 177.622 329.704 177.541C331.087 175.955 332.286 174.796 333.303 174.064C334.36 173.291 335.296 172.905 336.109 172.905C336.922 172.905 337.654 173.21 338.305 173.82C338.956 174.43 339.505 175.548 339.952 177.175L341.599 182.848L345.137 177.297C346.276 175.467 347.15 174.288 347.76 173.759C348.37 173.19 349.122 172.905 350.017 172.905ZM362.885 197.854C360.526 197.854 358.676 197 357.334 195.292C355.992 193.584 355.321 191.327 355.321 188.521C355.321 187.301 355.422 186.203 355.626 185.227C356.073 182.909 356.907 180.794 358.127 178.883C359.387 176.931 360.912 175.406 362.702 174.308C364.491 173.21 366.362 172.661 368.314 172.661C370.794 172.661 372.706 173.535 374.048 175.284C375.43 176.992 376.122 179.188 376.122 181.872C376.122 182.929 376 184.048 375.756 185.227C375.268 187.708 374.353 189.904 373.011 191.815C371.669 193.726 370.103 195.211 368.314 196.268C366.524 197.325 364.715 197.854 362.885 197.854ZM365.02 196.329C366.85 196.329 368.497 195.577 369.961 194.072C371.465 192.567 372.462 190.514 372.95 187.911C373.153 186.772 373.255 185.674 373.255 184.617C373.255 181.811 372.665 179.371 371.486 177.297C370.347 175.182 368.7 174.125 366.545 174.125C364.674 174.125 362.986 174.918 361.482 176.504C359.977 178.049 358.96 180.083 358.432 182.604C358.188 183.702 358.066 184.841 358.066 186.02C358.066 188.826 358.676 191.246 359.896 193.279C361.156 195.312 362.864 196.329 365.02 196.329ZM391.096 152.531C394.431 152.531 396.973 154.32 398.721 157.899C400.47 161.437 401.344 165.971 401.344 171.502C401.344 174.796 401.039 178.131 400.429 181.506C399.535 186.711 397.969 190.737 395.732 193.584C393.536 196.431 390.873 197.854 387.741 197.854C385.057 197.854 383.044 196.939 381.702 195.109C380.401 193.279 379.75 191.063 379.75 188.46C379.75 187.85 379.832 187.016 379.994 185.959C380.523 182.99 381.479 180.55 382.861 178.639C384.285 176.687 385.891 175.284 387.68 174.43C389.47 173.535 391.259 173.088 393.048 173.088C395.082 173.088 396.891 173.698 398.477 174.918C398.518 174.267 398.538 173.271 398.538 171.929C398.538 166.683 397.806 162.352 396.342 158.936C394.878 155.52 392.662 153.812 389.693 153.812C388.392 153.812 387.091 154.198 385.789 154.971H385.728C385.566 154.971 385.444 154.91 385.362 154.788C385.281 154.625 385.281 154.503 385.362 154.422C387.152 153.161 389.063 152.531 391.096 152.531ZM389.144 196.207C391.137 196.207 392.804 195.231 394.146 193.279C395.529 191.327 396.627 188.216 397.44 183.946C397.847 181.872 398.152 179.696 398.355 177.419C397.542 176.362 396.566 175.589 395.427 175.101C394.289 174.572 393.109 174.308 391.889 174.308C389.734 174.308 387.802 175.04 386.094 176.504C384.386 177.927 383.268 180.245 382.739 183.458C382.577 184.312 382.495 185.329 382.495 186.508C382.495 189.233 383.044 191.53 384.142 193.401C385.24 195.272 386.908 196.207 389.144 196.207ZM438.466 176.809C438.466 178.07 437.917 179.351 436.819 180.652C435.762 181.913 434.318 182.909 432.488 183.641C434.115 183.804 435.416 184.373 436.392 185.349C437.368 186.325 437.856 187.525 437.856 188.948C437.856 190.209 437.449 191.551 436.636 192.974C435.823 194.357 434.643 195.516 433.098 196.451C431.553 197.386 429.723 197.854 427.608 197.854C424.802 197.854 422.667 197.02 421.203 195.353C419.78 193.645 419.068 191.449 419.068 188.765C419.068 187.504 419.17 186.427 419.373 185.532C419.78 183.336 420.593 181.262 421.813 179.31C423.033 177.317 424.578 175.711 426.449 174.491C428.32 173.271 430.394 172.661 432.671 172.661C434.501 172.661 435.924 173.068 436.941 173.881C437.958 174.654 438.466 175.63 438.466 176.809ZM435.538 177.785C435.538 176.443 435.131 175.426 434.318 174.735C433.545 174.044 432.529 173.698 431.268 173.698C429.113 173.698 427.222 174.654 425.595 176.565C423.968 178.436 422.87 180.855 422.301 183.824C422.016 185.329 421.874 186.569 421.874 187.545C421.874 190.229 422.484 192.445 423.704 194.194C424.924 195.902 426.713 196.756 429.072 196.756C431.024 196.756 432.529 196.166 433.586 194.987C434.643 193.767 435.172 192.344 435.172 190.717C435.172 189.212 434.684 187.952 433.708 186.935C432.773 185.878 431.309 185.349 429.316 185.349C428.828 185.349 428.238 185.41 427.547 185.532C426.896 185.613 426.408 185.674 426.083 185.715H426.022C425.737 185.715 425.554 185.593 425.473 185.349C425.392 185.105 425.493 184.942 425.778 184.861C428.34 184.17 430.211 183.621 431.39 183.214C432.61 182.767 433.566 182.197 434.257 181.506C434.948 180.774 435.355 179.778 435.477 178.517L435.538 177.785ZM476.468 171.197C476.549 171.116 476.61 171.075 476.651 171.075C476.773 171.075 476.874 171.116 476.956 171.197C477.078 171.278 477.118 171.36 477.078 171.441L475.309 175.223C475.065 175.711 474.821 176.016 474.577 176.138C474.373 176.26 474.028 176.321 473.54 176.321L463.109 176.565C462.661 176.565 462.316 176.87 462.072 177.48L459.571 185.044C464.003 185.085 467.277 185.898 469.392 187.484C471.506 189.07 472.564 191.286 472.564 194.133C472.564 194.865 472.503 195.638 472.381 196.451C471.73 199.867 469.961 202.876 467.074 205.479C464.227 208.122 459.794 210.888 453.776 213.775H453.715C453.552 213.775 453.43 213.673 453.349 213.47C453.267 213.307 453.308 213.185 453.471 213.104C458.595 210.623 462.336 208.102 464.695 205.54C467.053 203.019 468.477 200.335 468.965 197.488C469.087 196.675 469.148 195.922 469.148 195.231C469.148 192.547 468.233 190.473 466.403 189.009C464.613 187.545 461.97 186.813 458.473 186.813C458.31 186.813 458.188 186.752 458.107 186.63C458.025 186.467 458.025 186.284 458.107 186.081L461.767 175.223C461.848 174.938 461.929 174.776 462.011 174.735C462.092 174.654 462.295 174.593 462.621 174.552C467.297 173.942 470.449 173.515 472.076 173.271C473.702 173.027 474.76 172.783 475.248 172.539C475.776 172.254 476.183 171.807 476.468 171.197ZM517.179 192.852C517.22 192.811 517.281 192.791 517.362 192.791C517.525 192.791 517.647 192.872 517.728 193.035C517.809 193.157 517.789 193.259 517.667 193.34C516.366 194.885 515.329 196.004 514.556 196.695C513.783 197.346 512.909 197.671 511.933 197.671C510.754 197.671 510.001 197.142 509.676 196.085C509.351 195.028 509.188 193.177 509.188 190.534C509.188 188.541 508.964 187.016 508.517 185.959C508.07 184.902 507.155 184.373 505.772 184.373C505.325 184.373 504.694 184.475 503.881 184.678C501.563 188.541 499.916 192.527 498.94 196.634C498.899 196.878 498.737 197.081 498.452 197.244C498.167 197.407 497.801 197.488 497.354 197.488C496.825 197.488 496.48 197.447 496.317 197.366C496.154 197.325 496.073 197.244 496.073 197.122L496.317 195.841C496.398 195.556 496.5 195.068 496.622 194.377C496.785 193.686 496.907 193.055 496.988 192.486L499.489 178.883C499.611 178.192 499.672 177.622 499.672 177.175C499.672 175.833 499.265 175.162 498.452 175.162C497.964 175.162 497.313 175.406 496.5 175.894C495.727 176.382 494.914 177.094 494.06 178.029C494.019 178.07 493.958 178.09 493.877 178.09C493.755 178.09 493.633 178.029 493.511 177.907C493.43 177.744 493.45 177.622 493.572 177.541C496.256 174.45 498.594 172.905 500.587 172.905C501.238 172.905 501.705 173.108 501.99 173.515C502.275 173.881 502.417 174.511 502.417 175.406C502.417 176.26 502.295 177.419 502.051 178.883L500.16 189.558C501.421 186.508 502.986 183.702 504.857 181.14C506.768 178.578 508.68 176.565 510.591 175.101C512.543 173.596 514.149 172.844 515.41 172.844C516.02 172.844 516.508 173.027 516.874 173.393C517.281 173.718 517.484 174.166 517.484 174.735C517.484 175.264 517.301 175.711 516.935 176.077C516.61 176.402 516.162 176.565 515.593 176.565C515.308 176.565 515.024 176.504 514.739 176.382C514.454 176.26 514.271 176.179 514.19 176.138C513.743 175.853 513.316 175.711 512.909 175.711C511.892 175.711 510.591 176.463 509.005 177.968C507.46 179.432 505.935 181.364 504.43 183.763C505.65 183.397 506.667 183.214 507.48 183.214C509.188 183.214 510.347 183.844 510.957 185.105C511.608 186.366 511.933 188.033 511.933 190.107C511.933 192.222 511.994 193.645 512.116 194.377C512.279 195.068 512.624 195.414 513.153 195.414C514.088 195.414 515.43 194.56 517.179 192.852ZM520.498 197.549C518.952 197.549 518.281 196.898 518.485 195.597C518.607 194.987 518.891 194.601 519.339 194.438C519.786 194.275 520.437 194.194 521.291 194.194C522.429 194.194 523.405 193.787 524.219 192.974C525.073 192.161 525.784 191.144 526.354 189.924C526.923 188.663 527.594 186.976 528.367 184.861C529.302 182.258 530.156 180.164 530.929 178.578C531.701 176.992 532.738 175.65 534.04 174.552C535.341 173.413 536.947 172.844 538.859 172.844C540.851 172.844 541.848 173.942 541.848 176.138C541.848 176.667 541.787 177.277 541.665 177.968L539.164 191.571C539.042 192.222 538.981 192.771 538.981 193.218C538.981 194.601 539.408 195.292 540.262 195.292C540.75 195.292 541.38 195.048 542.153 194.56C542.925 194.031 543.739 193.32 544.593 192.425C544.633 192.384 544.694 192.364 544.776 192.364C544.938 192.364 545.06 192.445 545.142 192.608C545.223 192.73 545.223 192.832 545.142 192.913C543.759 194.499 542.498 195.678 541.36 196.451C540.221 197.183 539.143 197.549 538.127 197.549C537.435 197.549 536.947 197.366 536.663 197C536.378 196.593 536.236 195.922 536.236 194.987C536.236 194.174 536.358 193.035 536.602 191.571L538.92 178.578C539.001 178.212 539.042 177.765 539.042 177.236C539.042 175.813 538.554 175.101 537.578 175.101C536.195 175.101 534.975 175.63 533.918 176.687C532.901 177.704 532.047 178.964 531.356 180.469C530.664 181.933 529.831 183.926 528.855 186.447C527.96 188.887 527.167 190.859 526.476 192.364C525.784 193.828 524.93 195.068 523.914 196.085C522.938 197.061 521.799 197.549 520.498 197.549ZM571.328 192.303C571.369 192.262 571.43 192.242 571.511 192.242C571.633 192.242 571.735 192.323 571.816 192.486C571.898 192.608 571.898 192.71 571.816 192.791C570.393 194.418 569.132 195.617 568.034 196.39C566.977 197.163 565.96 197.549 564.984 197.549C564.334 197.549 563.866 197.366 563.581 197C563.297 196.593 563.154 195.943 563.154 195.048C563.154 194.194 563.276 193.035 563.52 191.571L564.679 184.8C562.768 188.704 560.592 191.856 558.152 194.255C555.753 196.614 553.476 197.793 551.32 197.793C548.88 197.793 547.66 196.288 547.66 193.279C547.66 192.954 547.701 192.344 547.782 191.449C548.189 188.562 549.246 185.654 550.954 182.726C552.703 179.798 554.736 177.399 557.054 175.528C559.372 173.617 561.568 172.661 563.642 172.661C564.415 172.661 565.147 172.803 565.838 173.088C566.53 173.373 567.099 173.8 567.546 174.369C568.319 173.678 568.766 172.946 568.888 172.173C568.929 172.051 569.071 172.01 569.315 172.051C569.559 172.092 569.661 172.153 569.62 172.234L566.082 191.571C565.96 192.222 565.899 192.791 565.899 193.279C565.899 194.621 566.286 195.292 567.058 195.292C567.994 195.292 569.417 194.296 571.328 192.303ZM553.089 195.17C554.594 195.17 556.221 194.397 557.969 192.852C559.718 191.307 561.284 189.334 562.666 186.935C564.09 184.495 565.045 182.096 565.533 179.737C565.615 179.412 565.655 178.964 565.655 178.395C565.655 177.256 565.33 176.341 564.679 175.65C564.029 174.959 563.093 174.613 561.873 174.613C560.369 174.613 558.823 175.264 557.237 176.565C555.651 177.866 554.248 179.635 553.028 181.872C551.849 184.109 551.056 186.569 550.649 189.253C550.527 190.107 550.466 190.88 550.466 191.571C550.466 193.97 551.341 195.17 553.089 195.17ZM582.287 197.793C579.725 197.793 577.793 196.878 576.492 195.048C575.231 193.218 574.601 190.981 574.601 188.338C574.601 187.037 574.723 185.817 574.967 184.678C575.495 182.197 576.431 180.062 577.773 178.273C579.155 176.443 580.741 175.06 582.531 174.125C584.32 173.149 586.109 172.661 587.899 172.661C589.403 172.661 590.664 173.007 591.681 173.698C592.697 174.349 593.145 175.162 593.023 176.138C592.982 176.626 592.819 177.053 592.535 177.419C592.25 177.744 591.843 177.907 591.315 177.907C590.42 177.907 589.749 177.317 589.302 176.138C589.139 175.569 588.773 175.06 588.204 174.613C587.634 174.125 586.862 173.881 585.886 173.881C583.812 173.881 582.124 174.715 580.823 176.382C579.562 178.049 578.688 180.205 578.2 182.848C577.915 184.475 577.773 185.817 577.773 186.874C577.773 189.517 578.342 191.693 579.481 193.401C580.619 195.068 582.307 195.902 584.544 195.902C585.886 195.902 587.065 195.638 588.082 195.109C589.098 194.58 590.176 193.848 591.315 192.913L591.437 192.852C591.559 192.852 591.66 192.933 591.742 193.096C591.864 193.259 591.884 193.381 591.803 193.462C588.509 196.349 585.337 197.793 582.287 197.793ZM603.315 197.793C600.753 197.793 598.821 196.878 597.52 195.048C596.259 193.218 595.629 190.981 595.629 188.338C595.629 187.037 595.751 185.817 595.995 184.678C596.523 182.197 597.459 180.062 598.801 178.273C600.183 176.443 601.769 175.06 603.559 174.125C605.348 173.149 607.137 172.661 608.927 172.661C610.431 172.661 611.692 173.007 612.709 173.698C613.725 174.349 614.173 175.162 614.051 176.138C614.01 176.626 613.847 177.053 613.563 177.419C613.278 177.744 612.871 177.907 612.343 177.907C611.448 177.907 610.777 177.317 610.33 176.138C610.167 175.569 609.801 175.06 609.232 174.613C608.662 174.125 607.89 173.881 606.914 173.881C604.84 173.881 603.152 174.715 601.851 176.382C600.59 178.049 599.716 180.205 599.228 182.848C598.943 184.475 598.801 185.817 598.801 186.874C598.801 189.517 599.37 191.693 600.509 193.401C601.647 195.068 603.335 195.902 605.572 195.902C606.914 195.902 608.093 195.638 609.11 195.109C610.126 194.58 611.204 193.848 612.343 192.913L612.465 192.852C612.587 192.852 612.688 192.933 612.77 193.096C612.892 193.259 612.912 193.381 612.831 193.462C609.537 196.349 606.365 197.793 603.315 197.793ZM654.012 192.852C654.053 192.811 654.114 192.791 654.195 192.791C654.358 192.791 654.48 192.872 654.561 193.035C654.642 193.157 654.622 193.259 654.5 193.34C653.199 194.885 652.162 196.004 651.389 196.695C650.616 197.346 649.742 197.671 648.766 197.671C647.587 197.671 646.834 197.142 646.509 196.085C646.184 195.028 646.021 193.177 646.021 190.534C646.021 188.541 645.797 187.016 645.35 185.959C644.903 184.902 643.988 184.373 642.605 184.373C642.158 184.373 641.527 184.475 640.714 184.678C638.396 188.541 636.749 192.527 635.773 196.634C635.732 196.878 635.57 197.081 635.285 197.244C635 197.407 634.634 197.488 634.187 197.488C633.658 197.488 633.313 197.447 633.15 197.366C632.987 197.325 632.906 197.244 632.906 197.122L633.15 195.841C633.231 195.556 633.333 195.068 633.455 194.377C633.618 193.686 633.74 193.055 633.821 192.486L636.322 178.883C636.444 178.192 636.505 177.622 636.505 177.175C636.505 175.833 636.098 175.162 635.285 175.162C634.797 175.162 634.146 175.406 633.333 175.894C632.56 176.382 631.747 177.094 630.893 178.029C630.852 178.07 630.791 178.09 630.71 178.09C630.588 178.09 630.466 178.029 630.344 177.907C630.263 177.744 630.283 177.622 630.405 177.541C633.089 174.45 635.427 172.905 637.42 172.905C638.071 172.905 638.538 173.108 638.823 173.515C639.108 173.881 639.25 174.511 639.25 175.406C639.25 176.26 639.128 177.419 638.884 178.883L636.993 189.558C638.254 186.508 639.819 183.702 641.69 181.14C643.601 178.578 645.513 176.565 647.424 175.101C649.376 173.596 650.982 172.844 652.243 172.844C652.853 172.844 653.341 173.027 653.707 173.393C654.114 173.718 654.317 174.166 654.317 174.735C654.317 175.264 654.134 175.711 653.768 176.077C653.443 176.402 652.995 176.565 652.426 176.565C652.141 176.565 651.857 176.504 651.572 176.382C651.287 176.26 651.104 176.179 651.023 176.138C650.576 175.853 650.149 175.711 649.742 175.711C648.725 175.711 647.424 176.463 645.838 177.968C644.293 179.432 642.768 181.364 641.263 183.763C642.483 183.397 643.5 183.214 644.313 183.214C646.021 183.214 647.18 183.844 647.79 185.105C648.441 186.366 648.766 188.033 648.766 190.107C648.766 192.222 648.827 193.645 648.949 194.377C649.112 195.068 649.457 195.414 649.986 195.414C650.921 195.414 652.263 194.56 654.012 192.852ZM152.119 276C151.997 276 151.936 275.878 151.936 275.634C151.936 275.39 151.997 275.268 152.119 275.268C153.461 275.268 154.458 275.166 155.108 274.963C155.8 274.76 156.308 274.373 156.633 273.804C156.959 273.194 157.223 272.279 157.426 271.059L162.428 242.816C162.55 242.084 162.611 241.474 162.611 240.986C162.611 240.132 162.347 239.563 161.818 239.278C161.33 238.993 160.395 238.851 159.012 238.851H157.365C155.617 238.851 154.214 239.115 153.156 239.644C152.099 240.173 151.204 241.047 150.472 242.267C149.74 243.446 149.069 245.154 148.459 247.391C148.459 247.472 148.378 247.513 148.215 247.513C148.093 247.513 147.971 247.493 147.849 247.452C147.727 247.371 147.687 247.31 147.727 247.269C148.053 246.293 148.5 244.605 149.069 242.206C149.679 239.766 150.106 237.875 150.35 236.533C150.391 236.411 150.533 236.37 150.777 236.411C151.021 236.411 151.123 236.472 151.082 236.594C150.96 237.448 151.753 237.875 153.461 237.875C156.471 237.997 160.192 238.058 164.624 238.058C166.698 238.058 168.996 238.017 171.517 237.936L175.36 237.875C176.58 237.875 177.495 237.773 178.105 237.57C178.715 237.367 179.142 236.96 179.386 236.35C179.468 236.228 179.61 236.187 179.813 236.228C180.017 236.228 180.098 236.309 180.057 236.472C179.732 237.529 179.305 239.237 178.776 241.596C178.288 243.914 177.922 245.805 177.678 247.269C177.638 247.391 177.495 247.452 177.251 247.452C177.048 247.411 176.967 247.31 177.007 247.147C177.251 245.683 177.373 244.443 177.373 243.426C177.373 241.718 176.926 240.539 176.031 239.888C175.177 239.197 173.693 238.851 171.578 238.851H169.931C168.793 238.851 167.918 238.973 167.308 239.217C166.739 239.42 166.312 239.807 166.027 240.376C165.743 240.945 165.499 241.799 165.295 242.938L160.354 271.059C160.232 271.832 160.171 272.462 160.171 272.95C160.171 273.885 160.456 274.516 161.025 274.841C161.595 275.126 162.693 275.268 164.319 275.268C164.401 275.268 164.441 275.39 164.441 275.634C164.441 275.878 164.401 276 164.319 276C163.303 276 162.489 275.98 161.879 275.939L158.158 275.878L154.62 275.939C154.01 275.98 153.177 276 152.119 276ZM197.346 271.303C197.387 271.262 197.448 271.242 197.529 271.242C197.651 271.242 197.753 271.323 197.834 271.486C197.915 271.608 197.915 271.71 197.834 271.791C196.411 273.418 195.15 274.617 194.052 275.39C192.995 276.163 191.978 276.549 191.002 276.549C190.351 276.549 189.884 276.366 189.599 276C189.314 275.593 189.172 274.943 189.172 274.048C189.172 273.194 189.294 272.035 189.538 270.571L190.697 263.8C188.786 267.704 186.61 270.856 184.17 273.255C181.771 275.614 179.493 276.793 177.338 276.793C174.898 276.793 173.678 275.288 173.678 272.279C173.678 271.954 173.719 271.344 173.8 270.449C174.207 267.562 175.264 264.654 176.972 261.726C178.721 258.798 180.754 256.399 183.072 254.528C185.39 252.617 187.586 251.661 189.66 251.661C190.433 251.661 191.165 251.803 191.856 252.088C192.547 252.373 193.117 252.8 193.564 253.369C194.337 252.678 194.784 251.946 194.906 251.173C194.947 251.051 195.089 251.01 195.333 251.051C195.577 251.092 195.679 251.153 195.638 251.234L192.1 270.571C191.978 271.222 191.917 271.791 191.917 272.279C191.917 273.621 192.303 274.292 193.076 274.292C194.011 274.292 195.435 273.296 197.346 271.303ZM179.107 274.17C180.612 274.17 182.238 273.397 183.987 271.852C185.736 270.307 187.301 268.334 188.684 265.935C190.107 263.495 191.063 261.096 191.551 258.737C191.632 258.412 191.673 257.964 191.673 257.395C191.673 256.256 191.348 255.341 190.697 254.65C190.046 253.959 189.111 253.613 187.891 253.613C186.386 253.613 184.841 254.264 183.255 255.565C181.669 256.866 180.266 258.635 179.046 260.872C177.867 263.109 177.074 265.569 176.667 268.253C176.545 269.107 176.484 269.88 176.484 270.571C176.484 272.97 177.358 274.17 179.107 274.17ZM238.438 271.303C238.519 271.222 238.601 271.181 238.682 271.181C238.804 271.181 238.906 271.262 238.987 271.425C239.068 271.547 239.048 271.669 238.926 271.791C237.503 273.418 236.242 274.617 235.144 275.39C234.087 276.163 233.07 276.549 232.094 276.549C231.443 276.549 230.976 276.366 230.691 276C230.406 275.593 230.264 274.943 230.264 274.048C230.264 273.194 230.386 272.035 230.63 270.571L232.399 260.872C232.602 259.733 232.704 258.595 232.704 257.456C232.704 254.975 231.87 253.735 230.203 253.735C228.861 253.735 227.458 254.609 225.994 256.358C224.53 258.107 223.147 260.648 221.846 263.983C220.585 267.277 219.548 271.161 218.735 275.634C218.694 275.878 218.532 276.081 218.247 276.244C218.003 276.407 217.657 276.488 217.21 276.488C216.681 276.488 216.336 276.447 216.173 276.366C216.051 276.325 215.99 276.244 215.99 276.122L216.295 274.719L216.905 271.486L218.857 260.872C219.02 259.733 219.101 258.635 219.101 257.578C219.101 256.277 218.918 255.321 218.552 254.711C218.186 254.06 217.596 253.735 216.783 253.735C215.482 253.735 214.099 254.609 212.635 256.358C211.171 258.107 209.788 260.648 208.487 263.983C207.226 267.277 206.189 271.161 205.376 275.634C205.295 275.878 205.112 276.081 204.827 276.244C204.583 276.407 204.237 276.488 203.79 276.488C203.261 276.488 202.916 276.447 202.753 276.366C202.631 276.325 202.57 276.244 202.57 276.122C202.57 276 202.773 275.004 203.18 273.133L203.424 271.852L205.986 257.883C206.108 257.192 206.169 256.622 206.169 256.175C206.169 254.833 205.762 254.162 204.949 254.162C204.461 254.162 203.81 254.406 202.997 254.894C202.224 255.382 201.411 256.094 200.557 257.029C200.516 257.07 200.455 257.09 200.374 257.09C200.252 257.09 200.13 257.029 200.008 256.907C199.927 256.744 199.947 256.622 200.069 256.541C202.753 253.45 205.091 251.905 207.084 251.905C207.735 251.905 208.202 252.108 208.487 252.515C208.772 252.881 208.914 253.511 208.914 254.406C208.914 255.26 208.792 256.419 208.548 257.883L207.206 265.508C208.629 261.197 210.317 257.822 212.269 255.382C214.262 252.901 216.336 251.661 218.491 251.661C219.67 251.661 220.545 252.007 221.114 252.698C221.724 253.389 222.029 254.487 222.029 255.992C222.029 257.09 221.887 258.33 221.602 259.713L220.504 265.813C221.968 261.421 223.696 257.964 225.689 255.443C227.682 252.922 229.756 251.661 231.911 251.661C233.131 251.661 234.026 252.027 234.595 252.759C235.205 253.45 235.51 254.569 235.51 256.114C235.51 257.09 235.388 258.29 235.144 259.713L233.192 270.571C233.07 271.222 233.009 271.791 233.009 272.279C233.009 273.621 233.395 274.292 234.168 274.292C235.103 274.292 236.527 273.296 238.438 271.303ZM256.179 262.946C257.48 262.946 258.537 263.292 259.351 263.983C260.164 264.674 260.571 265.691 260.571 267.033C260.571 268.538 260.083 270.042 259.107 271.547C258.131 273.052 256.768 274.312 255.02 275.329C253.312 276.305 251.4 276.793 249.286 276.793C246.032 276.793 244.406 275.532 244.406 273.011C244.406 272.482 244.467 271.954 244.589 271.425L247.212 257.883C247.334 257.192 247.395 256.622 247.395 256.175C247.395 254.833 246.968 254.162 246.114 254.162C245.3 254.162 243.897 255.158 241.905 257.151C241.823 257.232 241.742 257.273 241.661 257.273C241.539 257.273 241.437 257.212 241.356 257.09C241.274 256.927 241.295 256.785 241.417 256.663C243.206 254.874 244.548 253.633 245.443 252.942C246.378 252.251 247.313 251.905 248.249 251.905C248.94 251.905 249.428 252.108 249.713 252.515C250.038 252.922 250.201 253.613 250.201 254.589C250.201 255.443 250.079 256.541 249.835 257.883L248.005 267.216C248.94 265.915 250.16 264.878 251.665 264.105C253.21 263.332 254.715 262.946 256.179 262.946ZM257.521 268.985C257.561 268.782 257.582 268.477 257.582 268.07C257.582 266.972 257.256 266.138 256.606 265.569C255.996 264.959 255.182 264.654 254.166 264.654C252.742 264.654 251.339 265.203 249.957 266.301C248.615 267.358 247.74 268.782 247.334 270.571C247.252 270.896 247.212 271.364 247.212 271.974C247.212 273.235 247.578 274.19 248.31 274.841C249.042 275.451 249.977 275.756 251.116 275.756C252.376 275.756 253.454 275.39 254.349 274.658C255.284 273.885 256.016 272.97 256.545 271.913C257.073 270.856 257.399 269.88 257.521 268.985ZM284.92 271.425C284.96 271.384 285.021 271.364 285.103 271.364C285.225 271.364 285.326 271.445 285.408 271.608C285.489 271.73 285.489 271.832 285.408 271.913C284.025 273.499 282.764 274.678 281.626 275.451C280.487 276.183 279.409 276.549 278.393 276.549C277.742 276.549 277.254 276.366 276.929 276C276.644 275.593 276.502 274.943 276.502 274.048C276.502 273.113 276.644 271.954 276.929 270.571L278.088 264.349C277.234 264.349 276.461 264.41 275.77 264.532H275.648C274.224 264.776 273.126 265.345 272.354 266.24C271.622 267.094 270.686 268.761 269.548 271.242C268.897 272.828 268.206 274.109 267.474 275.085C266.742 276.061 265.786 276.549 264.607 276.549C263.834 276.549 262.695 276.386 261.191 276.061C261.109 276.061 261.069 276 261.069 275.878C261.069 275.756 261.109 275.654 261.191 275.573C261.272 275.451 261.353 275.41 261.435 275.451C261.597 275.492 261.862 275.512 262.228 275.512C263.366 275.512 264.302 275.044 265.034 274.109C265.766 273.133 266.538 271.669 267.352 269.717C268.856 266.626 270.991 264.857 273.757 264.41C271.764 264.207 270.198 263.637 269.06 262.702C267.921 261.767 267.352 260.587 267.352 259.164C267.352 258.92 267.392 258.554 267.474 258.066C267.88 255.951 269.182 254.386 271.378 253.369C273.574 252.352 276.42 251.844 279.918 251.844C281.219 251.844 282.032 251.925 282.358 252.088C282.683 252.251 282.785 252.596 282.663 253.125L279.491 270.571C279.369 271.222 279.308 271.791 279.308 272.279C279.308 273.621 279.714 274.292 280.528 274.292C281.016 274.292 281.646 274.048 282.419 273.56C283.191 273.031 284.025 272.32 284.92 271.425ZM276.197 263.678C276.847 263.678 277.539 263.617 278.271 263.495L279.491 256.968C279.775 255.667 279.918 254.691 279.918 254.04C279.918 253.511 279.796 253.166 279.552 253.003C279.308 252.84 278.86 252.759 278.21 252.759C275.566 252.759 273.594 253.308 272.293 254.406C270.991 255.504 270.341 256.805 270.341 258.31C270.341 259.693 270.808 260.933 271.744 262.031C272.72 263.129 274.204 263.678 276.197 263.678ZM313.318 271.364C313.4 271.283 313.481 271.242 313.562 271.242C313.684 271.242 313.786 271.323 313.867 271.486C313.949 271.608 313.928 271.73 313.806 271.852C312.424 273.397 311.163 274.556 310.024 275.329C308.926 276.102 307.869 276.488 306.852 276.488C306.161 276.488 305.673 276.285 305.388 275.878C305.104 275.471 304.961 274.821 304.961 273.926C304.961 273.031 305.083 271.893 305.327 270.51L306.364 264.776H294.896L293.005 275.634C292.965 275.878 292.802 276.081 292.517 276.244C292.233 276.407 291.867 276.488 291.419 276.488C290.891 276.488 290.545 276.447 290.382 276.366C290.22 276.325 290.138 276.244 290.138 276.122L290.382 274.841C290.464 274.556 290.565 274.068 290.687 273.377C290.85 272.686 290.972 272.055 291.053 271.486L293.554 257.883C293.676 257.192 293.737 256.622 293.737 256.175C293.737 254.833 293.331 254.162 292.517 254.162C292.029 254.162 291.379 254.406 290.565 254.894C289.793 255.382 288.979 256.094 288.125 257.029C288.085 257.07 288.024 257.09 287.942 257.09C287.82 257.09 287.698 257.029 287.576 256.907C287.495 256.744 287.515 256.622 287.637 256.541C290.321 253.45 292.66 251.905 294.652 251.905C295.303 251.905 295.771 252.108 296.055 252.515C296.34 252.881 296.482 253.511 296.482 254.406C296.482 255.26 296.36 256.419 296.116 257.883L295.079 263.678H306.547L308.499 252.759C308.54 252.515 308.682 252.312 308.926 252.149C309.211 251.986 309.577 251.905 310.024 251.905C310.553 251.905 310.899 251.946 311.061 252.027C311.224 252.068 311.305 252.149 311.305 252.271C311.265 252.515 311.143 253.145 310.939 254.162C310.736 255.138 310.553 256.053 310.39 256.907L307.889 270.51C307.767 271.161 307.706 271.71 307.706 272.157C307.706 273.54 308.133 274.231 308.987 274.231C309.435 274.231 310.045 273.987 310.817 273.499C311.631 272.97 312.464 272.259 313.318 271.364ZM334.534 254.284C334.534 255.545 333.863 256.765 332.521 257.944C331.179 259.083 329.39 260.099 327.153 260.994C324.916 261.848 322.517 262.478 319.955 262.885C319.752 263.902 319.65 265.04 319.65 266.301C319.65 268.904 320.219 270.978 321.358 272.523C322.497 274.028 324.123 274.78 326.238 274.78C328.597 274.78 330.691 274.109 332.521 272.767H332.643C332.765 272.767 332.867 272.828 332.948 272.95C333.07 273.072 333.07 273.194 332.948 273.316C330.061 275.593 327.153 276.732 324.225 276.732C321.704 276.732 319.792 275.919 318.491 274.292C317.19 272.665 316.539 270.551 316.539 267.948C316.539 267.013 316.641 265.935 316.844 264.715C317.21 262.682 318.064 260.648 319.406 258.615C320.748 256.582 322.395 254.914 324.347 253.613C326.34 252.312 328.414 251.661 330.569 251.661C331.83 251.661 332.806 251.905 333.497 252.393C334.188 252.84 334.534 253.471 334.534 254.284ZM327.946 253.308C325.913 253.308 324.225 254.121 322.883 255.748C321.582 257.375 320.667 259.469 320.138 262.031C323.147 261.543 325.608 260.811 327.519 259.835C329.43 258.859 330.569 257.659 330.935 256.236C331.016 256.033 331.057 255.748 331.057 255.382C331.057 254.65 330.752 254.121 330.142 253.796C329.532 253.471 328.8 253.308 327.946 253.308ZM369.624 254.467C372.267 254.63 374.341 255.484 375.846 257.029C377.391 258.574 378.164 260.526 378.164 262.885C378.164 263.536 378.103 264.227 377.981 264.959C377.615 266.992 376.781 268.883 375.48 270.632C374.219 272.34 372.633 273.702 370.722 274.719C368.851 275.736 366.879 276.244 364.805 276.244C363.544 276.244 362.202 276.183 360.779 276.061C360.291 276.02 359.701 275.98 359.01 275.939C358.318 275.898 357.546 275.878 356.692 275.878L352.971 275.939C352.32 275.98 351.446 276 350.348 276C350.226 276 350.165 275.878 350.165 275.634C350.165 275.39 350.226 275.268 350.348 275.268C351.771 275.268 352.849 275.166 353.581 274.963C354.353 274.719 354.923 274.312 355.289 273.743C355.655 273.133 355.939 272.218 356.143 270.998L361.145 242.755C361.267 242.023 361.328 241.433 361.328 240.986C361.328 240.01 361.023 239.38 360.413 239.095C359.803 238.77 358.664 238.607 356.997 238.607C356.834 238.607 356.753 238.485 356.753 238.241C356.753 237.997 356.834 237.875 356.997 237.875L359.742 237.936C361.287 238.017 362.466 238.058 363.28 238.058C364.012 238.058 364.683 238.038 365.293 237.997C365.943 237.956 366.472 237.916 366.879 237.875C367.977 237.753 368.932 237.692 369.746 237.692C372.592 237.692 374.707 238.282 376.09 239.461C377.472 240.6 378.164 242.125 378.164 244.036C378.164 244.483 378.082 245.154 377.92 246.049C377.472 248.042 376.537 249.75 375.114 251.173C373.69 252.596 371.86 253.694 369.624 254.467ZM361.938 254.528L364.439 254.589C367.529 254.589 369.949 253.816 371.698 252.271C373.446 250.685 374.544 248.611 374.992 246.049C375.114 245.358 375.175 244.707 375.175 244.097C375.175 242.389 374.646 241.027 373.589 240.01C372.531 238.993 370.823 238.485 368.465 238.485C367.407 238.485 366.614 238.566 366.086 238.729C365.598 238.892 365.171 239.298 364.805 239.949C364.479 240.6 364.195 241.637 363.951 243.06L361.938 254.528ZM374.565 265.996C374.687 265.183 374.748 264.451 374.748 263.8C374.748 261.319 374.016 259.367 372.552 257.944C371.088 256.521 368.993 255.789 366.269 255.748C364.845 255.707 363.32 255.748 361.694 255.87L359.01 271.12C358.888 271.649 358.827 272.137 358.827 272.584C358.827 273.601 359.193 274.312 359.925 274.719C360.697 275.085 362.08 275.268 364.073 275.268C367.082 275.268 369.461 274.434 371.21 272.767C372.999 271.059 374.117 268.802 374.565 265.996ZM405.842 271.303C405.883 271.262 405.944 271.242 406.025 271.242C406.147 271.242 406.249 271.323 406.33 271.486C406.411 271.608 406.411 271.71 406.33 271.791C404.907 273.418 403.646 274.617 402.548 275.39C401.491 276.163 400.474 276.549 399.498 276.549C398.847 276.549 398.38 276.366 398.095 276C397.81 275.593 397.668 274.943 397.668 274.048C397.668 273.194 397.79 272.035 398.034 270.571L399.193 263.8C397.282 267.704 395.106 270.856 392.666 273.255C390.267 275.614 387.989 276.793 385.834 276.793C383.394 276.793 382.174 275.288 382.174 272.279C382.174 271.954 382.215 271.344 382.296 270.449C382.703 267.562 383.76 264.654 385.468 261.726C387.217 258.798 389.25 256.399 391.568 254.528C393.886 252.617 396.082 251.661 398.156 251.661C398.929 251.661 399.661 251.803 400.352 252.088C401.043 252.373 401.613 252.8 402.06 253.369C402.833 252.678 403.28 251.946 403.402 251.173C403.443 251.051 403.585 251.01 403.829 251.051C404.073 251.092 404.175 251.153 404.134 251.234L400.596 270.571C400.474 271.222 400.413 271.791 400.413 272.279C400.413 273.621 400.799 274.292 401.572 274.292C402.507 274.292 403.931 273.296 405.842 271.303ZM387.603 274.17C389.108 274.17 390.734 273.397 392.483 271.852C394.232 270.307 395.797 268.334 397.18 265.935C398.603 263.495 399.559 261.096 400.047 258.737C400.128 258.412 400.169 257.964 400.169 257.395C400.169 256.256 399.844 255.341 399.193 254.65C398.542 253.959 397.607 253.613 396.387 253.613C394.882 253.613 393.337 254.264 391.751 255.565C390.165 256.866 388.762 258.635 387.542 260.872C386.363 263.109 385.57 265.569 385.163 268.253C385.041 269.107 384.98 269.88 384.98 270.571C384.98 272.97 385.854 274.17 387.603 274.17ZM408.565 276.549C407.02 276.549 406.349 275.898 406.552 274.597C406.674 273.987 406.959 273.601 407.406 273.438C407.854 273.275 408.504 273.194 409.358 273.194C410.497 273.194 411.473 272.787 412.286 271.974C413.14 271.161 413.852 270.144 414.421 268.924C414.991 267.663 415.662 265.976 416.434 263.861C417.37 261.258 418.224 259.164 418.996 257.578C419.769 255.992 420.806 254.65 422.107 253.552C423.409 252.413 425.015 251.844 426.926 251.844C428.919 251.844 429.915 252.942 429.915 255.138C429.915 255.667 429.854 256.277 429.732 256.968L427.231 270.571C427.109 271.222 427.048 271.771 427.048 272.218C427.048 273.601 427.475 274.292 428.329 274.292C428.817 274.292 429.448 274.048 430.22 273.56C430.993 273.031 431.806 272.32 432.66 271.425C432.701 271.384 432.762 271.364 432.843 271.364C433.006 271.364 433.128 271.445 433.209 271.608C433.291 271.73 433.291 271.832 433.209 271.913C431.827 273.499 430.566 274.678 429.427 275.451C428.289 276.183 427.211 276.549 426.194 276.549C425.503 276.549 425.015 276.366 424.73 276C424.446 275.593 424.303 274.922 424.303 273.987C424.303 273.174 424.425 272.035 424.669 270.571L426.987 257.578C427.069 257.212 427.109 256.765 427.109 256.236C427.109 254.813 426.621 254.101 425.645 254.101C424.263 254.101 423.043 254.63 421.985 255.687C420.969 256.704 420.115 257.964 419.423 259.469C418.732 260.933 417.898 262.926 416.922 265.447C416.028 267.887 415.235 269.859 414.543 271.364C413.852 272.828 412.998 274.068 411.981 275.085C411.005 276.061 409.867 276.549 408.565 276.549ZM454.211 254.284C454.211 255.545 453.54 256.765 452.198 257.944C450.856 259.083 449.066 260.099 446.83 260.994C444.593 261.848 442.194 262.478 439.632 262.885C439.428 263.902 439.327 265.04 439.327 266.301C439.327 268.904 439.896 270.978 441.035 272.523C442.173 274.028 443.8 274.78 445.915 274.78C448.273 274.78 450.368 274.109 452.198 272.767H452.32C452.442 272.767 452.543 272.828 452.625 272.95C452.747 273.072 452.747 273.194 452.625 273.316C449.737 275.593 446.83 276.732 443.902 276.732C441.38 276.732 439.469 275.919 438.168 274.292C436.866 272.665 436.216 270.551 436.216 267.948C436.216 267.013 436.317 265.935 436.521 264.715C436.887 262.682 437.741 260.648 439.083 258.615C440.425 256.582 442.072 254.914 444.024 253.613C446.016 252.312 448.09 251.661 450.246 251.661C451.506 251.661 452.482 251.905 453.174 252.393C453.865 252.84 454.211 253.471 454.211 254.284ZM447.623 253.308C445.589 253.308 443.902 254.121 442.56 255.748C441.258 257.375 440.343 259.469 439.815 262.031C442.824 261.543 445.284 260.811 447.196 259.835C449.107 258.859 450.246 257.659 450.612 256.236C450.693 256.033 450.734 255.748 450.734 255.382C450.734 254.65 450.429 254.121 449.819 253.796C449.209 253.471 448.477 253.308 447.623 253.308ZM482.141 271.364C482.222 271.283 482.303 271.242 482.385 271.242C482.507 271.242 482.608 271.323 482.69 271.486C482.771 271.608 482.751 271.73 482.629 271.852C481.246 273.397 479.985 274.556 478.847 275.329C477.749 276.102 476.691 276.488 475.675 276.488C474.983 276.488 474.495 276.285 474.211 275.878C473.926 275.471 473.784 274.821 473.784 273.926C473.784 273.031 473.906 271.893 474.15 270.51L475.187 264.776H463.719L461.828 275.634C461.787 275.878 461.624 276.081 461.34 276.244C461.055 276.407 460.689 276.488 460.242 276.488C459.713 276.488 459.367 276.447 459.205 276.366C459.042 276.325 458.961 276.244 458.961 276.122L459.205 274.841C459.286 274.556 459.388 274.068 459.51 273.377C459.672 272.686 459.794 272.055 459.876 271.486L462.377 257.883C462.499 257.192 462.56 256.622 462.56 256.175C462.56 254.833 462.153 254.162 461.34 254.162C460.852 254.162 460.201 254.406 459.388 254.894C458.615 255.382 457.802 256.094 456.948 257.029C456.907 257.07 456.846 257.09 456.765 257.09C456.643 257.09 456.521 257.029 456.399 256.907C456.317 256.744 456.338 256.622 456.46 256.541C459.144 253.45 461.482 251.905 463.475 251.905C464.125 251.905 464.593 252.108 464.878 252.515C465.162 252.881 465.305 253.511 465.305 254.406C465.305 255.26 465.183 256.419 464.939 257.883L463.902 263.678H475.37L477.322 252.759C477.362 252.515 477.505 252.312 477.749 252.149C478.033 251.986 478.399 251.905 478.847 251.905C479.375 251.905 479.721 251.946 479.884 252.027C480.046 252.068 480.128 252.149 480.128 252.271C480.087 252.515 479.965 253.145 479.762 254.162C479.558 255.138 479.375 256.053 479.213 256.907L476.712 270.51C476.59 271.161 476.529 271.71 476.529 272.157C476.529 273.54 476.956 274.231 477.81 274.231C478.257 274.231 478.867 273.987 479.64 273.499C480.453 272.97 481.287 272.259 482.141 271.364ZM523.303 271.303C523.385 271.222 523.466 271.181 523.547 271.181C523.669 271.181 523.771 271.262 523.852 271.425C523.934 271.547 523.913 271.669 523.791 271.791C522.368 273.418 521.107 274.617 520.009 275.39C518.952 276.163 517.935 276.549 516.959 276.549C516.309 276.549 515.841 276.366 515.556 276C515.272 275.593 515.129 274.943 515.129 274.048C515.129 273.194 515.251 272.035 515.495 270.571L517.264 260.872C517.468 259.733 517.569 258.595 517.569 257.456C517.569 254.975 516.736 253.735 515.068 253.735C513.726 253.735 512.323 254.609 510.859 256.358C509.395 258.107 508.013 260.648 506.711 263.983C505.451 267.277 504.414 271.161 503.6 275.634C503.56 275.878 503.397 276.081 503.112 276.244C502.868 276.407 502.523 276.488 502.075 276.488C501.547 276.488 501.201 276.447 501.038 276.366C500.916 276.325 500.855 276.244 500.855 276.122L501.16 274.719L501.77 271.486L503.722 260.872C503.885 259.733 503.966 258.635 503.966 257.578C503.966 256.277 503.783 255.321 503.417 254.711C503.051 254.06 502.462 253.735 501.648 253.735C500.347 253.735 498.964 254.609 497.5 256.358C496.036 258.107 494.654 260.648 493.352 263.983C492.092 267.277 491.055 271.161 490.241 275.634C490.16 275.878 489.977 276.081 489.692 276.244C489.448 276.407 489.103 276.488 488.655 276.488C488.127 276.488 487.781 276.447 487.618 276.366C487.496 276.325 487.435 276.244 487.435 276.122C487.435 276 487.639 275.004 488.045 273.133L488.289 271.852L490.851 257.883C490.973 257.192 491.034 256.622 491.034 256.175C491.034 254.833 490.628 254.162 489.814 254.162C489.326 254.162 488.676 254.406 487.862 254.894C487.09 255.382 486.276 256.094 485.422 257.029C485.382 257.07 485.321 257.09 485.239 257.09C485.117 257.09 484.995 257.029 484.873 256.907C484.792 256.744 484.812 256.622 484.934 256.541C487.618 253.45 489.957 251.905 491.949 251.905C492.6 251.905 493.068 252.108 493.352 252.515C493.637 252.881 493.779 253.511 493.779 254.406C493.779 255.26 493.657 256.419 493.413 257.883L492.071 265.508C493.495 261.197 495.182 257.822 497.134 255.382C499.127 252.901 501.201 251.661 503.356 251.661C504.536 251.661 505.41 252.007 505.979 252.698C506.589 253.389 506.894 254.487 506.894 255.992C506.894 257.09 506.752 258.33 506.467 259.713L505.369 265.813C506.833 261.421 508.562 257.964 510.554 255.443C512.547 252.922 514.621 251.661 516.776 251.661C517.996 251.661 518.891 252.027 519.46 252.759C520.07 253.45 520.375 254.569 520.375 256.114C520.375 257.09 520.253 258.29 520.009 259.713L518.057 270.571C517.935 271.222 517.874 271.791 517.874 272.279C517.874 273.621 518.261 274.292 519.033 274.292C519.969 274.292 521.392 273.296 523.303 271.303ZM551.17 271.425C551.211 271.384 551.272 271.364 551.353 271.364C551.475 271.364 551.577 271.445 551.658 271.608C551.78 271.73 551.78 271.832 551.658 271.913C550.275 273.499 549.015 274.678 547.876 275.451C546.737 276.183 545.66 276.549 544.643 276.549C543.992 276.549 543.525 276.366 543.24 276C542.955 275.593 542.813 274.943 542.813 274.048C542.813 273.194 542.935 272.035 543.179 270.571L544.582 262.458C543.118 266.931 541.349 270.449 539.275 273.011C537.242 275.532 535.107 276.793 532.87 276.793C531.528 276.793 530.532 276.447 529.881 275.756C529.23 275.065 528.905 273.967 528.905 272.462C528.905 271.527 529.068 270.286 529.393 268.741L531.589 257.883C531.711 257.192 531.772 256.622 531.772 256.175C531.772 255.524 531.65 255.036 531.406 254.711C531.203 254.345 530.918 254.162 530.552 254.162C529.657 254.162 528.254 255.158 526.343 257.151C526.262 257.232 526.18 257.273 526.099 257.273C525.977 257.273 525.875 257.212 525.794 257.09C525.713 256.927 525.733 256.785 525.855 256.663C527.278 255.036 528.519 253.837 529.576 253.064C530.674 252.291 531.711 251.905 532.687 251.905C533.338 251.905 533.826 252.108 534.151 252.515C534.476 252.881 534.639 253.511 534.639 254.406C534.639 255.179 534.476 256.338 534.151 257.883L532.199 267.582C531.914 268.883 531.772 270.063 531.772 271.12C531.772 273.519 532.707 274.719 534.578 274.719C535.961 274.719 537.384 273.845 538.848 272.096C540.353 270.347 541.756 267.826 543.057 264.532C544.399 261.197 545.477 257.293 546.29 252.82C546.331 252.576 546.493 252.373 546.778 252.21C547.063 252.047 547.429 251.966 547.876 251.966C548.73 251.966 549.157 252.088 549.157 252.332L548.913 253.613C548.832 253.898 548.71 254.386 548.547 255.077C548.425 255.768 548.323 256.399 548.242 256.968L545.741 270.571C545.619 271.222 545.558 271.791 545.558 272.279C545.558 273.621 545.965 274.292 546.778 274.292C547.266 274.292 547.896 274.048 548.669 273.56C549.482 273.072 550.316 272.36 551.17 271.425ZM579.896 271.364C579.977 271.283 580.058 271.242 580.14 271.242C580.262 271.242 580.363 271.323 580.445 271.486C580.526 271.608 580.506 271.73 580.384 271.852C579.001 273.397 577.74 274.556 576.602 275.329C575.504 276.102 574.446 276.488 573.43 276.488C572.738 276.488 572.25 276.285 571.966 275.878C571.681 275.471 571.539 274.821 571.539 273.926C571.539 273.031 571.661 271.893 571.905 270.51L572.942 264.776H561.474L559.583 275.634C559.542 275.878 559.379 276.081 559.095 276.244C558.81 276.407 558.444 276.488 557.997 276.488C557.468 276.488 557.122 276.447 556.96 276.366C556.797 276.325 556.716 276.244 556.716 276.122L556.96 274.841C557.041 274.556 557.143 274.068 557.265 273.377C557.427 272.686 557.549 272.055 557.631 271.486L560.132 257.883C560.254 257.192 560.315 256.622 560.315 256.175C560.315 254.833 559.908 254.162 559.095 254.162C558.607 254.162 557.956 254.406 557.143 254.894C556.37 255.382 555.557 256.094 554.703 257.029C554.662 257.07 554.601 257.09 554.52 257.09C554.398 257.09 554.276 257.029 554.154 256.907C554.072 256.744 554.093 256.622 554.215 256.541C556.899 253.45 559.237 251.905 561.23 251.905C561.88 251.905 562.348 252.108 562.633 252.515C562.917 252.881 563.06 253.511 563.06 254.406C563.06 255.26 562.938 256.419 562.694 257.883L561.657 263.678H573.125L575.077 252.759C575.117 252.515 575.26 252.312 575.504 252.149C575.788 251.986 576.154 251.905 576.602 251.905C577.13 251.905 577.476 251.946 577.639 252.027C577.801 252.068 577.883 252.149 577.883 252.271C577.842 252.515 577.72 253.145 577.517 254.162C577.313 255.138 577.13 256.053 576.968 256.907L574.467 270.51C574.345 271.161 574.284 271.71 574.284 272.157C574.284 273.54 574.711 274.231 575.565 274.231C576.012 274.231 576.622 273.987 577.395 273.499C578.208 272.97 579.042 272.259 579.896 271.364ZM590.741 276.854C588.383 276.854 586.532 276 585.19 274.292C583.848 272.584 583.177 270.327 583.177 267.521C583.177 266.301 583.279 265.203 583.482 264.227C583.93 261.909 584.763 259.794 585.983 257.883C587.244 255.931 588.769 254.406 590.558 253.308C592.348 252.21 594.218 251.661 596.17 251.661C598.651 251.661 600.562 252.535 601.904 254.284C603.287 255.992 603.978 258.188 603.978 260.872C603.978 261.929 603.856 263.048 603.612 264.227C603.124 266.708 602.209 268.904 600.867 270.815C599.525 272.726 597.96 274.211 596.17 275.268C594.381 276.325 592.571 276.854 590.741 276.854ZM592.876 275.329C594.706 275.329 596.353 274.577 597.817 273.072C599.322 271.567 600.318 269.514 600.806 266.911C601.01 265.772 601.111 264.674 601.111 263.617C601.111 260.811 600.522 258.371 599.342 256.297C598.204 254.182 596.557 253.125 594.401 253.125C592.531 253.125 590.843 253.918 589.338 255.504C587.834 257.049 586.817 259.083 586.288 261.604C586.044 262.702 585.922 263.841 585.922 265.02C585.922 267.826 586.532 270.246 587.752 272.279C589.013 274.312 590.721 275.329 592.876 275.329ZM627.066 255.809C627.066 257.07 626.517 258.351 625.419 259.652C624.361 260.913 622.918 261.909 621.088 262.641C622.714 262.804 624.016 263.373 624.992 264.349C625.968 265.325 626.456 266.525 626.456 267.948C626.456 269.209 626.049 270.551 625.236 271.974C624.422 273.357 623.243 274.516 621.698 275.451C620.152 276.386 618.322 276.854 616.208 276.854C613.402 276.854 611.267 276.02 609.803 274.353C608.379 272.645 607.668 270.449 607.668 267.765C607.668 266.504 607.769 265.427 607.973 264.532C608.379 262.336 609.193 260.262 610.413 258.31C611.633 256.317 613.178 254.711 615.049 253.491C616.919 252.271 618.993 251.661 621.271 251.661C623.101 251.661 624.524 252.068 625.541 252.881C626.557 253.654 627.066 254.63 627.066 255.809ZM624.138 256.785C624.138 255.443 623.731 254.426 622.918 253.735C622.145 253.044 621.128 252.698 619.868 252.698C617.712 252.698 615.821 253.654 614.195 255.565C612.568 257.436 611.47 259.855 610.901 262.824C610.616 264.329 610.474 265.569 610.474 266.545C610.474 269.229 611.084 271.445 612.304 273.194C613.524 274.902 615.313 275.756 617.672 275.756C619.624 275.756 621.128 275.166 622.186 273.987C623.243 272.767 623.772 271.344 623.772 269.717C623.772 268.212 623.284 266.952 622.308 265.935C621.372 264.878 619.908 264.349 617.916 264.349C617.428 264.349 616.838 264.41 616.147 264.532C615.496 264.613 615.008 264.674 614.683 264.715H614.622C614.337 264.715 614.154 264.593 614.073 264.349C613.991 264.105 614.093 263.942 614.378 263.861C616.94 263.17 618.81 262.621 619.99 262.214C621.21 261.767 622.165 261.197 622.857 260.506C623.548 259.774 623.955 258.778 624.077 257.517L624.138 256.785ZM656.443 271.364C656.525 271.283 656.606 271.242 656.687 271.242C656.809 271.242 656.911 271.323 656.992 271.486C657.074 271.608 657.053 271.73 656.931 271.852C655.549 273.397 654.288 274.556 653.149 275.329C652.051 276.102 650.994 276.488 649.977 276.488C649.286 276.488 648.798 276.285 648.513 275.878C648.229 275.471 648.086 274.821 648.086 273.926C648.086 273.031 648.208 271.893 648.452 270.51L649.489 264.776H638.021L636.13 275.634C636.09 275.878 635.927 276.081 635.642 276.244C635.358 276.407 634.992 276.488 634.544 276.488C634.016 276.488 633.67 276.447 633.507 276.366C633.345 276.325 633.263 276.244 633.263 276.122L633.507 274.841C633.589 274.556 633.69 274.068 633.812 273.377C633.975 272.686 634.097 272.055 634.178 271.486L636.679 257.883C636.801 257.192 636.862 256.622 636.862 256.175C636.862 254.833 636.456 254.162 635.642 254.162C635.154 254.162 634.504 254.406 633.69 254.894C632.918 255.382 632.104 256.094 631.25 257.029C631.21 257.07 631.149 257.09 631.067 257.09C630.945 257.09 630.823 257.029 630.701 256.907C630.62 256.744 630.64 256.622 630.762 256.541C633.446 253.45 635.785 251.905 637.777 251.905C638.428 251.905 638.896 252.108 639.18 252.515C639.465 252.881 639.607 253.511 639.607 254.406C639.607 255.26 639.485 256.419 639.241 257.883L638.204 263.678H649.672L651.624 252.759C651.665 252.515 651.807 252.312 652.051 252.149C652.336 251.986 652.702 251.905 653.149 251.905C653.678 251.905 654.024 251.946 654.186 252.027C654.349 252.068 654.43 252.149 654.43 252.271C654.39 252.515 654.268 253.145 654.064 254.162C653.861 255.138 653.678 256.053 653.515 256.907L651.014 270.51C650.892 271.161 650.831 271.71 650.831 272.157C650.831 273.54 651.258 274.231 652.112 274.231C652.56 274.231 653.17 273.987 653.942 273.499C654.756 272.97 655.589 272.259 656.443 271.364ZM677.659 254.284C677.659 255.545 676.988 256.765 675.646 257.944C674.304 259.083 672.515 260.099 670.278 260.994C668.041 261.848 665.642 262.478 663.08 262.885C662.877 263.902 662.775 265.04 662.775 266.301C662.775 268.904 663.344 270.978 664.483 272.523C665.622 274.028 667.248 274.78 669.363 274.78C671.722 274.78 673.816 274.109 675.646 272.767H675.768C675.89 272.767 675.992 272.828 676.073 272.95C676.195 273.072 676.195 273.194 676.073 273.316C673.186 275.593 670.278 276.732 667.35 276.732C664.829 276.732 662.917 275.919 661.616 274.292C660.315 272.665 659.664 270.551 659.664 267.948C659.664 267.013 659.766 265.935 659.969 264.715C660.335 262.682 661.189 260.648 662.531 258.615C663.873 256.582 665.52 254.914 667.472 253.613C669.465 252.312 671.539 251.661 673.694 251.661C674.955 251.661 675.931 251.905 676.622 252.393C677.313 252.84 677.659 253.471 677.659 254.284ZM671.071 253.308C669.038 253.308 667.35 254.121 666.008 255.748C664.707 257.375 663.792 259.469 663.263 262.031C666.272 261.543 668.733 260.811 670.644 259.835C672.555 258.859 673.694 257.659 674.06 256.236C674.141 256.033 674.182 255.748 674.182 255.382C674.182 254.65 673.877 254.121 673.267 253.796C672.657 253.471 671.925 253.308 671.071 253.308ZM695.402 235.923C695.402 235.557 695.748 235.191 696.439 234.825C697.171 234.459 697.883 234.215 698.574 234.093C699.306 233.971 699.631 234.012 699.55 234.215L695.463 243.731C695.422 243.853 695.3 243.914 695.097 243.914C694.894 243.914 694.792 243.853 694.792 243.731L695.402 235.923ZM686.191 241.901C685.662 241.698 685.398 240.803 685.398 239.217C685.398 238.648 685.439 238.18 685.52 237.814C685.601 237.407 685.703 237.265 685.825 237.387L693.694 244.28C693.735 244.321 693.755 244.382 693.755 244.463C693.755 244.544 693.714 244.646 693.633 244.768C693.592 244.849 693.531 244.87 693.45 244.829L686.191 241.901ZM696.378 245.317C696.297 245.317 696.215 245.236 696.134 245.073C696.093 244.87 696.114 244.748 696.195 244.707L703.881 242.816C704.247 242.735 704.694 242.979 705.223 243.548C705.792 244.077 706.24 244.666 706.565 245.317C706.931 245.927 706.992 246.232 706.748 246.232L696.378 245.317ZM689.058 252.393C688.895 252.596 688.59 252.698 688.143 252.698C687.696 252.698 687.167 252.617 686.557 252.454C685.947 252.251 685.439 252.047 685.032 251.844C684.666 251.6 684.544 251.437 684.666 251.356L693.633 246.049L693.755 245.988C693.836 245.988 693.918 246.049 693.999 246.171C694.121 246.293 694.162 246.374 694.121 246.415L689.058 252.393ZM695.28 246.659V246.598C695.28 246.517 695.341 246.415 695.463 246.293C695.626 246.171 695.727 246.151 695.768 246.232L699.977 252.942C700.18 253.267 700.079 253.776 699.672 254.467C699.306 255.158 698.879 255.789 698.391 256.358C697.903 256.887 697.639 257.029 697.598 256.785L695.28 246.659Z" fill="white"></path> </svg> 