<?xml version="1.0" encoding="UTF-8"?> <svg xmlns="http://www.w3.org/2000/svg" width="164" height="165" viewBox="0 0 164 165" fill="none"> <ellipse cx="82.5" cy="82" rx="28.5" ry="30" fill="#86B9B4"></ellipse> <circle cx="82.5" cy="80.5" r="26.5" fill="#1C1C1C"></circle> <path d="M82.36 82.076C81.76 82.076 81.172 81.972 80.596 81.764C80.02 81.556 79.504 81.244 79.048 80.828C78.6 80.404 78.24 79.884 77.968 79.268C77.696 78.644 77.56 77.916 77.56 77.084C77.56 76.308 77.704 75.58 77.992 74.9C78.28 74.22 78.684 73.624 79.204 73.112C79.724 72.6 80.348 72.196 81.076 71.9C81.804 71.604 82.608 71.456 83.488 71.456C84.376 71.456 85.172 71.596 85.876 71.876C86.588 72.156 87.192 72.548 87.688 73.052C88.192 73.556 88.576 74.16 88.84 74.864C89.112 75.568 89.248 76.34 89.248 77.18C89.248 77.716 89.2 78.224 89.104 78.704C89.016 79.184 88.884 79.648 88.708 80.096C88.54 80.536 88.336 80.968 88.096 81.392C87.856 81.808 87.588 82.228 87.292 82.652L83.32 88.316C83.184 88.508 82.98 88.672 82.708 88.808C82.444 88.936 82.14 89 81.796 89H79.072L84.46 82.268C84.596 82.1 84.724 81.936 84.844 81.776C84.964 81.616 85.08 81.456 85.192 81.296C84.792 81.552 84.352 81.748 83.872 81.884C83.392 82.012 82.888 82.076 82.36 82.076ZM86.404 76.88C86.404 76.408 86.332 75.988 86.188 75.62C86.044 75.244 85.84 74.928 85.576 74.672C85.312 74.416 84.996 74.22 84.628 74.084C84.268 73.948 83.872 73.88 83.44 73.88C82.992 73.88 82.588 73.956 82.228 74.108C81.868 74.252 81.56 74.456 81.304 74.72C81.056 74.984 80.864 75.3 80.728 75.668C80.592 76.028 80.524 76.424 80.524 76.856C80.524 77.824 80.772 78.564 81.268 79.076C81.772 79.58 82.484 79.832 83.404 79.832C83.884 79.832 84.308 79.756 84.676 79.604C85.052 79.452 85.368 79.244 85.624 78.98C85.88 78.716 86.072 78.404 86.2 78.044C86.336 77.684 86.404 77.296 86.404 76.88Z" fill="white"></path> </svg> 