<?xml version="1.0" encoding="UTF-8"?> <svg xmlns="http://www.w3.org/2000/svg" width="164" height="165" viewBox="0 0 164 165" fill="none"> <ellipse cx="82.5" cy="82" rx="28.5" ry="30" fill="#86B9B4"></ellipse> <circle cx="82.5" cy="80.5" r="26.5" fill="#1C1C1C"></circle> <path d="M83.224 71.456C84.024 71.456 84.756 71.576 85.42 71.816C86.084 72.048 86.652 72.38 87.124 72.812C87.596 73.244 87.964 73.764 88.228 74.372C88.492 74.98 88.624 75.656 88.624 76.4C88.624 77.04 88.528 77.632 88.336 78.176C88.152 78.72 87.9 79.24 87.58 79.736C87.268 80.232 86.9 80.712 86.476 81.176C86.052 81.64 85.608 82.112 85.144 82.592L81.232 86.588C81.616 86.476 81.992 86.392 82.36 86.336C82.728 86.272 83.08 86.24 83.416 86.24H87.868C88.188 86.24 88.44 86.332 88.624 86.516C88.816 86.692 88.912 86.928 88.912 87.224V89H77.008V88.016C77.008 87.816 77.048 87.608 77.128 87.392C77.216 87.176 77.352 86.976 77.536 86.792L82.804 81.512C83.244 81.064 83.636 80.636 83.98 80.228C84.332 79.82 84.624 79.416 84.856 79.016C85.096 78.616 85.276 78.212 85.396 77.804C85.524 77.388 85.588 76.952 85.588 76.496C85.588 76.08 85.528 75.716 85.408 75.404C85.288 75.084 85.116 74.816 84.892 74.6C84.668 74.384 84.4 74.224 84.088 74.12C83.784 74.008 83.44 73.952 83.056 73.952C82.344 73.952 81.756 74.132 81.292 74.492C80.836 74.852 80.516 75.336 80.332 75.944C80.244 76.248 80.112 76.468 79.936 76.604C79.76 76.732 79.536 76.796 79.264 76.796C79.144 76.796 79.012 76.784 78.868 76.76L77.308 76.484C77.428 75.652 77.66 74.924 78.004 74.3C78.348 73.668 78.776 73.144 79.288 72.728C79.808 72.304 80.4 71.988 81.064 71.78C81.736 71.564 82.456 71.456 83.224 71.456Z" fill="white"></path> </svg> 