<?xml version="1.0" encoding="UTF-8"?> <svg xmlns="http://www.w3.org/2000/svg" width="356" height="362" viewBox="0 0 356 362" fill="none"> <path d="M45.8238 204.88C49.1304 202.427 52.0104 200.187 54.4638 198.16C56.9171 196.08 58.9971 194.16 60.7038 192.4C62.4104 190.64 63.7438 188.987 64.7038 187.44C65.6638 185.84 66.2504 184.267 66.4637 182.72C66.8371 180.64 66.5438 178.96 65.5838 177.68C64.6238 176.347 63.1838 175.68 61.2638 175.68C59.2904 175.68 57.4771 176.507 55.8238 178.16C54.2238 179.76 52.7304 182.16 51.3438 185.36C51.2904 185.573 51.1038 185.627 50.7838 185.52C50.4638 185.413 50.3304 185.253 50.3838 185.04L54.9438 173.28C55.0504 173.12 55.2104 173.067 55.4238 173.12C55.6904 173.173 55.7971 173.307 55.7438 173.52C55.4771 174.373 55.4238 174.933 55.5838 175.2C55.7971 175.467 56.0638 175.6 56.3838 175.6C57.1304 175.6 58.1438 175.36 59.4238 174.88C60.7571 174.347 62.2504 174.08 63.9038 174.08C66.2504 174.08 68.0104 174.827 69.1838 176.32C70.4104 177.813 70.7838 179.813 70.3038 182.32C70.0371 183.653 69.5038 185.013 68.7038 186.4C67.9571 187.733 66.8371 189.173 65.3438 190.72C63.9038 192.213 62.0371 193.92 59.7438 195.84C57.4504 197.707 54.6504 199.867 51.3438 202.32C51.1304 202.427 51.0504 202.533 51.1038 202.64C51.2104 202.693 51.3438 202.72 51.5038 202.72C55.2904 202.72 58.3038 202.693 60.5438 202.64C62.7838 202.533 64.5171 202.32 65.7438 202C67.0238 201.627 67.9571 201.067 68.5438 200.32C69.1838 199.52 69.7438 198.453 70.2238 197.12C70.3304 196.907 70.5171 196.853 70.7838 196.96C71.1038 197.013 71.2371 197.147 71.1838 197.36L68.8637 205.28C68.8104 205.44 68.7038 205.6 68.5438 205.76C68.4371 205.92 68.2771 206 68.0638 206C64.6504 206 61.0238 206 57.1838 206C53.3971 206 49.7438 206 46.2238 206C46.0104 206 45.8238 205.867 45.6638 205.6C45.5571 205.333 45.6104 205.093 45.8238 204.88ZM88.7319 207.04C85.9585 207.04 83.5852 206.32 81.6119 204.88C79.6385 203.44 78.2252 201.467 77.3719 198.96C76.5719 196.453 76.4385 193.573 76.9719 190.32C77.5585 187.12 78.7052 184.32 80.4119 181.92C82.1185 179.467 84.1985 177.547 86.6519 176.16C89.1585 174.773 91.8252 174.08 94.6519 174.08C97.4785 174.08 99.8519 174.8 101.772 176.24C103.692 177.627 105.052 179.573 105.852 182.08C106.705 184.533 106.839 187.36 106.252 190.56C105.719 193.76 104.599 196.613 102.892 199.12C101.185 201.573 99.1052 203.52 96.6519 204.96C94.1985 206.347 91.5585 207.04 88.7319 207.04ZM89.7719 206.08C91.9052 206.08 93.7719 205.467 95.3719 204.24C96.9719 203.013 98.3052 201.307 99.3719 199.12C100.439 196.88 101.212 194.347 101.692 191.52C102.332 187.733 102.359 184.64 101.772 182.24C101.239 179.787 100.252 177.973 98.8119 176.8C97.4252 175.627 95.7719 175.04 93.8519 175.04C90.7052 175.04 88.0385 176.427 85.8519 179.2C83.6652 181.973 82.1985 185.467 81.4519 189.68C80.9185 192.773 80.8919 195.573 81.3719 198.08C81.8519 200.533 82.7852 202.48 84.1719 203.92C85.6119 205.36 87.4785 206.08 89.7719 206.08ZM109.496 204.88C112.802 202.427 115.682 200.187 118.136 198.16C120.589 196.08 122.669 194.16 124.376 192.4C126.082 190.64 127.416 188.987 128.376 187.44C129.336 185.84 129.922 184.267 130.136 182.72C130.509 180.64 130.216 178.96 129.256 177.68C128.296 176.347 126.856 175.68 124.936 175.68C122.962 175.68 121.149 176.507 119.496 178.16C117.896 179.76 116.402 182.16 115.016 185.36C114.962 185.573 114.776 185.627 114.456 185.52C114.136 185.413 114.002 185.253 114.056 185.04L118.616 173.28C118.722 173.12 118.882 173.067 119.096 173.12C119.362 173.173 119.469 173.307 119.416 173.52C119.149 174.373 119.096 174.933 119.256 175.2C119.469 175.467 119.736 175.6 120.056 175.6C120.802 175.6 121.816 175.36 123.096 174.88C124.429 174.347 125.922 174.08 127.576 174.08C129.922 174.08 131.682 174.827 132.856 176.32C134.082 177.813 134.456 179.813 133.976 182.32C133.709 183.653 133.176 185.013 132.376 186.4C131.629 187.733 130.509 189.173 129.016 190.72C127.576 192.213 125.709 193.92 123.416 195.84C121.122 197.707 118.322 199.867 115.016 202.32C114.802 202.427 114.722 202.533 114.776 202.64C114.882 202.693 115.016 202.72 115.176 202.72C118.962 202.72 121.976 202.693 124.216 202.64C126.456 202.533 128.189 202.32 129.416 202C130.696 201.627 131.629 201.067 132.216 200.32C132.856 199.52 133.416 198.453 133.896 197.12C134.002 196.907 134.189 196.853 134.456 196.96C134.776 197.013 134.909 197.147 134.856 197.36L132.536 205.28C132.482 205.44 132.376 205.6 132.216 205.76C132.109 205.92 131.949 206 131.736 206C128.322 206 124.696 206 120.856 206C117.069 206 113.416 206 109.896 206C109.682 206 109.496 205.867 109.336 205.6C109.229 205.333 109.282 205.093 109.496 204.88ZM138.324 204.88C141.63 202.427 144.51 200.187 146.964 198.16C149.417 196.08 151.497 194.16 153.204 192.4C154.91 190.64 156.244 188.987 157.204 187.44C158.164 185.84 158.75 184.267 158.964 182.72C159.337 180.64 159.044 178.96 158.084 177.68C157.124 176.347 155.684 175.68 153.764 175.68C151.79 175.68 149.977 176.507 148.324 178.16C146.724 179.76 145.23 182.16 143.844 185.36C143.79 185.573 143.604 185.627 143.284 185.52C142.964 185.413 142.83 185.253 142.884 185.04L147.444 173.28C147.55 173.12 147.71 173.067 147.924 173.12C148.19 173.173 148.297 173.307 148.244 173.52C147.977 174.373 147.924 174.933 148.084 175.2C148.297 175.467 148.564 175.6 148.884 175.6C149.63 175.6 150.644 175.36 151.924 174.88C153.257 174.347 154.75 174.08 156.404 174.08C158.75 174.08 160.51 174.827 161.684 176.32C162.91 177.813 163.284 179.813 162.804 182.32C162.537 183.653 162.004 185.013 161.204 186.4C160.457 187.733 159.337 189.173 157.844 190.72C156.404 192.213 154.537 193.92 152.244 195.84C149.95 197.707 147.15 199.867 143.844 202.32C143.63 202.427 143.55 202.533 143.604 202.64C143.71 202.693 143.844 202.72 144.004 202.72C147.79 202.72 150.804 202.693 153.044 202.64C155.284 202.533 157.017 202.32 158.244 202C159.524 201.627 160.457 201.067 161.044 200.32C161.684 199.52 162.244 198.453 162.724 197.12C162.83 196.907 163.017 196.853 163.284 196.96C163.604 197.013 163.737 197.147 163.684 197.36L161.364 205.28C161.31 205.44 161.204 205.6 161.044 205.76C160.937 205.92 160.777 206 160.564 206C157.15 206 153.524 206 149.684 206C145.897 206 142.244 206 138.724 206C138.51 206 138.324 205.867 138.164 205.6C138.057 205.333 138.11 205.093 138.324 204.88ZM169.232 192.56C169.072 192.56 168.965 192.293 168.912 191.76C168.859 191.227 168.832 190.667 168.832 190.08C168.885 189.493 168.965 189.173 169.072 189.12L189.072 185.44C189.232 185.387 189.312 185.653 189.312 186.24C189.365 186.773 189.365 187.333 189.312 187.92C189.312 188.453 189.232 188.747 189.072 188.8L169.232 192.56ZM191.527 204.88C194.834 202.427 197.714 200.187 200.167 198.16C202.62 196.08 204.7 194.16 206.407 192.4C208.114 190.64 209.447 188.987 210.407 187.44C211.367 185.84 211.954 184.267 212.167 182.72C212.54 180.64 212.247 178.96 211.287 177.68C210.327 176.347 208.887 175.68 206.967 175.68C204.994 175.68 203.18 176.507 201.527 178.16C199.927 179.76 198.434 182.16 197.047 185.36C196.994 185.573 196.807 185.627 196.487 185.52C196.167 185.413 196.034 185.253 196.087 185.04L200.647 173.28C200.754 173.12 200.914 173.067 201.127 173.12C201.394 173.173 201.5 173.307 201.447 173.52C201.18 174.373 201.127 174.933 201.287 175.2C201.5 175.467 201.767 175.6 202.087 175.6C202.834 175.6 203.847 175.36 205.127 174.88C206.46 174.347 207.954 174.08 209.607 174.08C211.954 174.08 213.714 174.827 214.887 176.32C216.114 177.813 216.487 179.813 216.007 182.32C215.74 183.653 215.207 185.013 214.407 186.4C213.66 187.733 212.54 189.173 211.047 190.72C209.607 192.213 207.74 193.92 205.447 195.84C203.154 197.707 200.354 199.867 197.047 202.32C196.834 202.427 196.754 202.533 196.807 202.64C196.914 202.693 197.047 202.72 197.207 202.72C200.994 202.72 204.007 202.693 206.247 202.64C208.487 202.533 210.22 202.32 211.447 202C212.727 201.627 213.66 201.067 214.247 200.32C214.887 199.52 215.447 198.453 215.927 197.12C216.034 196.907 216.22 196.853 216.487 196.96C216.807 197.013 216.94 197.147 216.887 197.36L214.567 205.28C214.514 205.44 214.407 205.6 214.247 205.76C214.14 205.92 213.98 206 213.767 206C210.354 206 206.727 206 202.887 206C199.1 206 195.447 206 191.927 206C191.714 206 191.527 205.867 191.367 205.6C191.26 205.333 191.314 205.093 191.527 204.88ZM234.435 207.04C231.662 207.04 229.288 206.32 227.315 204.88C225.342 203.44 223.928 201.467 223.075 198.96C222.275 196.453 222.142 193.573 222.675 190.32C223.262 187.12 224.408 184.32 226.115 181.92C227.822 179.467 229.902 177.547 232.355 176.16C234.862 174.773 237.528 174.08 240.355 174.08C243.182 174.08 245.555 174.8 247.475 176.24C249.395 177.627 250.755 179.573 251.555 182.08C252.408 184.533 252.542 187.36 251.955 190.56C251.422 193.76 250.302 196.613 248.595 199.12C246.888 201.573 244.808 203.52 242.355 204.96C239.902 206.347 237.262 207.04 234.435 207.04ZM235.475 206.08C237.608 206.08 239.475 205.467 241.075 204.24C242.675 203.013 244.008 201.307 245.075 199.12C246.142 196.88 246.915 194.347 247.395 191.52C248.035 187.733 248.062 184.64 247.475 182.24C246.942 179.787 245.955 177.973 244.515 176.8C243.128 175.627 241.475 175.04 239.555 175.04C236.408 175.04 233.742 176.427 231.555 179.2C229.368 181.973 227.902 185.467 227.155 189.68C226.622 192.773 226.595 195.573 227.075 198.08C227.555 200.533 228.488 202.48 229.875 203.92C231.315 205.36 233.182 206.08 235.475 206.08ZM255.199 204.88C258.505 202.427 261.385 200.187 263.839 198.16C266.292 196.08 268.372 194.16 270.079 192.4C271.785 190.64 273.119 188.987 274.079 187.44C275.039 185.84 275.625 184.267 275.839 182.72C276.212 180.64 275.919 178.96 274.959 177.68C273.999 176.347 272.559 175.68 270.639 175.68C268.665 175.68 266.852 176.507 265.199 178.16C263.599 179.76 262.105 182.16 260.719 185.36C260.665 185.573 260.479 185.627 260.159 185.52C259.839 185.413 259.705 185.253 259.759 185.04L264.319 173.28C264.425 173.12 264.585 173.067 264.799 173.12C265.065 173.173 265.172 173.307 265.119 173.52C264.852 174.373 264.799 174.933 264.959 175.2C265.172 175.467 265.439 175.6 265.759 175.6C266.505 175.6 267.519 175.36 268.799 174.88C270.132 174.347 271.625 174.08 273.279 174.08C275.625 174.08 277.385 174.827 278.559 176.32C279.785 177.813 280.159 179.813 279.679 182.32C279.412 183.653 278.879 185.013 278.079 186.4C277.332 187.733 276.212 189.173 274.719 190.72C273.279 192.213 271.412 193.92 269.119 195.84C266.825 197.707 264.025 199.867 260.719 202.32C260.505 202.427 260.425 202.533 260.479 202.64C260.585 202.693 260.719 202.72 260.879 202.72C264.665 202.72 267.679 202.693 269.919 202.64C272.159 202.533 273.892 202.32 275.119 202C276.399 201.627 277.332 201.067 277.919 200.32C278.559 199.52 279.119 198.453 279.599 197.12C279.705 196.907 279.892 196.853 280.159 196.96C280.479 197.013 280.612 197.147 280.559 197.36L278.239 205.28C278.185 205.44 278.079 205.6 277.919 205.76C277.812 205.92 277.652 206 277.439 206C274.025 206 270.399 206 266.559 206C262.772 206 259.119 206 255.599 206C255.385 206 255.199 205.867 255.039 205.6C254.932 205.333 254.985 205.093 255.199 204.88ZM281.307 228.08C281.094 228.133 280.96 228 280.907 227.68C280.8 227.36 280.8 227.173 280.907 227.12C285.547 225.733 289.254 223.893 292.027 221.6C294.854 219.307 296.96 216.88 298.347 214.32C299.734 211.76 300.614 209.387 300.987 207.2C301.254 205.6 301.254 204.053 300.987 202.56C300.774 201.013 300.16 199.76 299.147 198.8C298.187 197.787 296.667 197.28 294.587 197.28C294.054 197.28 293.467 197.333 292.827 197.44C292.24 197.547 291.6 197.68 290.907 197.84C290.747 197.893 290.614 197.733 290.507 197.36C290.4 196.987 290.427 196.773 290.587 196.72C294.747 195.653 297.787 194.133 299.707 192.16C301.627 190.133 302.854 187.52 303.387 184.32C303.867 181.76 303.707 179.68 302.907 178.08C302.16 176.48 300.614 175.68 298.267 175.68C296.134 175.68 294.214 176.453 292.507 178C290.8 179.493 289.254 181.973 287.867 185.44C287.76 185.6 287.547 185.627 287.227 185.52C286.96 185.36 286.854 185.2 286.907 185.04L291.707 173.36C291.814 173.2 292 173.2 292.267 173.36C292.534 173.467 292.614 173.627 292.507 173.84C292.134 174.693 292.054 175.253 292.267 175.52C292.534 175.733 292.827 175.84 293.147 175.84C293.894 175.84 294.934 175.547 296.267 174.96C297.6 174.373 299.094 174.08 300.747 174.08C302.614 174.08 304.08 174.533 305.147 175.44C306.267 176.293 307.014 177.44 307.387 178.88C307.76 180.267 307.787 181.787 307.467 183.44C307.147 185.36 306.427 187.227 305.307 189.04C304.187 190.853 302.747 192.427 300.987 193.76C299.28 195.093 297.334 196 295.147 196.48L296.587 195.52C299.094 195.52 301.04 196.08 302.427 197.2C303.867 198.267 304.827 199.68 305.307 201.44C305.84 203.147 305.92 204.987 305.547 206.96C305.12 209.413 303.92 212 301.947 214.72C300.027 217.44 297.36 219.973 293.947 222.32C290.534 224.72 286.32 226.64 281.307 228.08Z" fill="url(#paint0_linear_83_144)"></path> <defs> <linearGradient id="paint0_linear_83_144" x1="76.2373" y1="181" x2="311" y2="181" gradientUnits="userSpaceOnUse"> <stop stop-color="#78B5AF"></stop> <stop offset="0.992708" stop-color="#9B54BC"></stop> </linearGradient> </defs> </svg> 