<?xml version="1.0" encoding="UTF-8"?> <svg xmlns="http://www.w3.org/2000/svg" width="164" height="165" viewBox="0 0 164 165" fill="none"> <ellipse cx="82.5" cy="82" rx="28.5" ry="30" fill="#86B9B4"></ellipse> <circle cx="82.5" cy="80.5" r="26.5" fill="#1C1C1C"></circle> <path d="M82.96 89.192C82.064 89.192 81.244 89.072 80.5 88.832C79.764 88.592 79.132 88.252 78.604 87.812C78.076 87.372 77.664 86.84 77.368 86.216C77.08 85.592 76.936 84.896 76.936 84.128C76.936 83.104 77.188 82.24 77.692 81.536C78.196 80.824 78.98 80.296 80.044 79.952C79.196 79.6 78.56 79.1 78.136 78.452C77.72 77.804 77.512 77.024 77.512 76.112C77.512 75.456 77.644 74.844 77.908 74.276C78.18 73.708 78.556 73.216 79.036 72.8C79.516 72.376 80.088 72.048 80.752 71.816C81.424 71.576 82.16 71.456 82.96 71.456C83.76 71.456 84.492 71.576 85.156 71.816C85.828 72.048 86.404 72.376 86.884 72.8C87.364 73.216 87.736 73.708 88 74.276C88.272 74.844 88.408 75.456 88.408 76.112C88.408 77.024 88.196 77.804 87.772 78.452C87.348 79.1 86.716 79.6 85.876 79.952C86.94 80.296 87.724 80.824 88.228 81.536C88.732 82.24 88.984 83.104 88.984 84.128C88.984 84.896 88.836 85.592 88.54 86.216C88.252 86.84 87.844 87.372 87.316 87.812C86.788 88.252 86.152 88.592 85.408 88.832C84.672 89.072 83.856 89.192 82.96 89.192ZM82.96 86.876C83.448 86.876 83.876 86.808 84.244 86.672C84.612 86.528 84.92 86.332 85.168 86.084C85.424 85.836 85.616 85.54 85.744 85.196C85.872 84.852 85.936 84.48 85.936 84.08C85.936 83.128 85.672 82.408 85.144 81.92C84.616 81.432 83.888 81.188 82.96 81.188C82.032 81.188 81.304 81.432 80.776 81.92C80.248 82.408 79.984 83.128 79.984 84.08C79.984 84.48 80.048 84.852 80.176 85.196C80.304 85.54 80.492 85.836 80.74 86.084C80.996 86.332 81.308 86.528 81.676 86.672C82.044 86.808 82.472 86.876 82.96 86.876ZM82.96 78.86C83.44 78.86 83.844 78.784 84.172 78.632C84.5 78.48 84.764 78.28 84.964 78.032C85.164 77.776 85.304 77.488 85.384 77.168C85.472 76.84 85.516 76.504 85.516 76.16C85.516 75.832 85.464 75.52 85.36 75.224C85.256 74.928 85.1 74.668 84.892 74.444C84.684 74.212 84.42 74.028 84.1 73.892C83.78 73.756 83.4 73.688 82.96 73.688C82.52 73.688 82.14 73.756 81.82 73.892C81.5 74.028 81.232 74.212 81.016 74.444C80.808 74.668 80.652 74.928 80.548 75.224C80.452 75.52 80.404 75.832 80.404 76.16C80.404 76.504 80.444 76.84 80.524 77.168C80.612 77.488 80.756 77.776 80.956 78.032C81.156 78.28 81.42 78.48 81.748 78.632C82.076 78.784 82.48 78.86 82.96 78.86Z" fill="white"></path> </svg> 