<?xml version="1.0" encoding="UTF-8"?> <svg xmlns="http://www.w3.org/2000/svg" width="164" height="165" viewBox="0 0 164 165" fill="none"> <ellipse cx="82.5" cy="82" rx="28.5" ry="30" fill="#86B9B4"></ellipse> <circle cx="82.5" cy="80.5" r="26.5" fill="#1C1C1C"></circle> <path d="M84.04 78.164C84.696 78.164 85.332 78.272 85.948 78.488C86.572 78.704 87.12 79.032 87.592 79.472C88.064 79.904 88.444 80.444 88.732 81.092C89.02 81.74 89.164 82.496 89.164 83.36C89.164 84.168 89.016 84.928 88.72 85.64C88.424 86.344 88.008 86.96 87.472 87.488C86.936 88.016 86.288 88.432 85.528 88.736C84.776 89.04 83.944 89.192 83.032 89.192C82.104 89.192 81.272 89.044 80.536 88.748C79.8 88.452 79.172 88.04 78.652 87.512C78.132 86.976 77.732 86.336 77.452 85.592C77.18 84.84 77.044 84.008 77.044 83.096C77.044 82.28 77.208 81.444 77.536 80.588C77.872 79.724 78.388 78.828 79.084 77.9L83.224 72.344C83.368 72.152 83.576 71.988 83.848 71.852C84.128 71.716 84.448 71.648 84.808 71.648H87.448L82.3 77.948C82.188 78.084 82.08 78.212 81.976 78.332C81.88 78.452 81.784 78.576 81.688 78.704C82.024 78.536 82.384 78.404 82.768 78.308C83.16 78.212 83.584 78.164 84.04 78.164ZM79.888 83.552C79.888 84.032 79.952 84.472 80.08 84.872C80.216 85.264 80.412 85.6 80.668 85.88C80.932 86.16 81.256 86.38 81.64 86.54C82.024 86.692 82.468 86.768 82.972 86.768C83.444 86.768 83.876 86.688 84.268 86.528C84.668 86.368 85.008 86.144 85.288 85.856C85.576 85.568 85.8 85.232 85.96 84.848C86.12 84.456 86.2 84.032 86.2 83.576C86.2 83.08 86.124 82.636 85.972 82.244C85.82 81.844 85.604 81.508 85.324 81.236C85.044 80.956 84.708 80.744 84.316 80.6C83.924 80.456 83.492 80.384 83.02 80.384C82.548 80.384 82.12 80.464 81.736 80.624C81.352 80.784 81.02 81.008 80.74 81.296C80.468 81.576 80.256 81.912 80.104 82.304C79.96 82.688 79.888 83.104 79.888 83.552Z" fill="white"></path> </svg> 