<?xml version="1.0" encoding="UTF-8"?> <svg xmlns="http://www.w3.org/2000/svg" width="356" height="362" viewBox="0 0 356 362" fill="none"> <path d="M45.7456 204.88C49.0523 202.427 51.9323 200.187 54.3856 198.16C56.839 196.08 58.919 194.16 60.6256 192.4C62.3323 190.64 63.6656 188.987 64.6256 187.44C65.5856 185.84 66.1723 184.267 66.3856 182.72C66.759 180.64 66.4656 178.96 65.5056 177.68C64.5456 176.347 63.1056 175.68 61.1856 175.68C59.2123 175.68 57.399 176.507 55.7456 178.16C54.1456 179.76 52.6523 182.16 51.2656 185.36C51.2123 185.573 51.0256 185.627 50.7056 185.52C50.3856 185.413 50.2523 185.253 50.3056 185.04L54.8656 173.28C54.9723 173.12 55.1323 173.067 55.3456 173.12C55.6123 173.173 55.719 173.307 55.6656 173.52C55.399 174.373 55.3456 174.933 55.5056 175.2C55.719 175.467 55.9856 175.6 56.3056 175.6C57.0523 175.6 58.0656 175.36 59.3456 174.88C60.679 174.347 62.1723 174.08 63.8256 174.08C66.1723 174.08 67.9323 174.827 69.1056 176.32C70.3323 177.813 70.7056 179.813 70.2256 182.32C69.959 183.653 69.4256 185.013 68.6256 186.4C67.879 187.733 66.759 189.173 65.2656 190.72C63.8256 192.213 61.959 193.92 59.6656 195.84C57.3723 197.707 54.5723 199.867 51.2656 202.32C51.0523 202.427 50.9723 202.533 51.0256 202.64C51.1323 202.693 51.2656 202.72 51.4256 202.72C55.2123 202.72 58.2256 202.693 60.4656 202.64C62.7056 202.533 64.439 202.32 65.6656 202C66.9456 201.627 67.879 201.067 68.4656 200.32C69.1056 199.52 69.6656 198.453 70.1456 197.12C70.2523 196.907 70.439 196.853 70.7056 196.96C71.0256 197.013 71.159 197.147 71.1056 197.36L68.7856 205.28C68.7323 205.44 68.6256 205.6 68.4656 205.76C68.359 205.92 68.199 206 67.9856 206C64.5723 206 60.9456 206 57.1056 206C53.319 206 49.6656 206 46.1456 206C45.9323 206 45.7456 205.867 45.5856 205.6C45.479 205.333 45.5323 205.093 45.7456 204.88ZM88.6538 207.04C85.8804 207.04 83.5071 206.32 81.5338 204.88C79.5604 203.44 78.1471 201.467 77.2938 198.96C76.4938 196.453 76.3604 193.573 76.8938 190.32C77.4804 187.12 78.6271 184.32 80.3338 181.92C82.0404 179.467 84.1204 177.547 86.5738 176.16C89.0804 174.773 91.7471 174.08 94.5738 174.08C97.4004 174.08 99.7738 174.8 101.694 176.24C103.614 177.627 104.974 179.573 105.774 182.08C106.627 184.533 106.76 187.36 106.174 190.56C105.64 193.76 104.52 196.613 102.814 199.12C101.107 201.573 99.0271 203.52 96.5738 204.96C94.1204 206.347 91.4804 207.04 88.6538 207.04ZM89.6938 206.08C91.8271 206.08 93.6938 205.467 95.2938 204.24C96.8938 203.013 98.2271 201.307 99.2938 199.12C100.36 196.88 101.134 194.347 101.614 191.52C102.254 187.733 102.28 184.64 101.694 182.24C101.16 179.787 100.174 177.973 98.7338 176.8C97.3471 175.627 95.6938 175.04 93.7738 175.04C90.6271 175.04 87.9604 176.427 85.7738 179.2C83.5871 181.973 82.1204 185.467 81.3738 189.68C80.8404 192.773 80.8138 195.573 81.2938 198.08C81.7738 200.533 82.7071 202.48 84.0938 203.92C85.5338 205.36 87.4004 206.08 89.6938 206.08ZM110.218 206C110.004 206 109.898 205.84 109.898 205.52C109.898 205.2 110.004 205.04 110.218 205.04C112.191 205.04 113.711 204.907 114.778 204.64C115.844 204.373 116.618 203.84 117.098 203.04C117.631 202.24 118.031 201.067 118.298 199.52L121.018 184.48C121.391 182.24 121.524 180.693 121.418 179.84C121.311 178.933 120.751 178.587 119.738 178.8C118.724 179.013 117.018 179.68 114.618 180.8C114.404 180.907 114.244 180.827 114.138 180.56C114.031 180.24 114.084 180.053 114.298 180L125.658 174.4C125.818 174.293 125.978 174.293 126.138 174.4C126.298 174.507 126.324 174.613 126.218 174.72L121.818 199.52C121.551 201.067 121.498 202.24 121.658 203.04C121.871 203.84 122.484 204.373 123.498 204.64C124.511 204.907 126.058 205.04 128.138 205.04C128.298 205.04 128.378 205.2 128.378 205.52C128.378 205.84 128.298 206 128.138 206C126.911 206 125.551 205.973 124.058 205.92C122.564 205.867 120.964 205.84 119.258 205.84C117.604 205.84 115.978 205.867 114.378 205.92C112.831 205.973 111.444 206 110.218 206ZM148.539 221.04C148.005 221.307 147.765 221.147 147.819 220.56L155.019 180L156.619 178.96L134.619 202.48C134.352 202.853 134.459 203.04 134.939 203.04C138.672 203.04 141.979 203.013 144.859 202.96C147.739 202.907 150.459 202.853 153.019 202.8C155.579 202.693 158.245 202.613 161.019 202.56C161.179 202.56 161.232 202.853 161.179 203.44C161.125 203.973 161.019 204.533 160.859 205.12C160.699 205.653 160.539 205.92 160.379 205.92C157.819 205.76 155.179 205.653 152.459 205.6C149.739 205.493 146.672 205.44 143.259 205.44C139.845 205.387 135.819 205.36 131.179 205.36C130.965 205.36 130.832 205.253 130.779 205.04C130.672 204.827 130.725 204.613 130.939 204.4L158.539 174.32C158.645 174.16 158.859 174.107 159.179 174.16C159.499 174.213 159.632 174.373 159.579 174.64L151.739 218.64C151.632 219.227 151.392 219.6 151.019 219.76L148.539 221.04ZM168.451 192.56C168.291 192.56 168.184 192.293 168.131 191.76C168.077 191.227 168.051 190.667 168.051 190.08C168.104 189.493 168.184 189.173 168.291 189.12L188.291 185.44C188.451 185.387 188.531 185.653 188.531 186.24C188.584 186.773 188.584 187.333 188.531 187.92C188.531 188.453 188.451 188.747 188.291 188.8L168.451 192.56ZM190.746 204.88C194.052 202.427 196.932 200.187 199.386 198.16C201.839 196.08 203.919 194.16 205.626 192.4C207.332 190.64 208.666 188.987 209.626 187.44C210.586 185.84 211.172 184.267 211.386 182.72C211.759 180.64 211.466 178.96 210.506 177.68C209.546 176.347 208.106 175.68 206.186 175.68C204.212 175.68 202.399 176.507 200.746 178.16C199.146 179.76 197.652 182.16 196.266 185.36C196.212 185.573 196.026 185.627 195.706 185.52C195.386 185.413 195.252 185.253 195.306 185.04L199.866 173.28C199.972 173.12 200.132 173.067 200.346 173.12C200.612 173.173 200.719 173.307 200.666 173.52C200.399 174.373 200.346 174.933 200.506 175.2C200.719 175.467 200.986 175.6 201.306 175.6C202.052 175.6 203.066 175.36 204.346 174.88C205.679 174.347 207.172 174.08 208.826 174.08C211.172 174.08 212.932 174.827 214.106 176.32C215.332 177.813 215.706 179.813 215.226 182.32C214.959 183.653 214.426 185.013 213.626 186.4C212.879 187.733 211.759 189.173 210.266 190.72C208.826 192.213 206.959 193.92 204.666 195.84C202.372 197.707 199.572 199.867 196.266 202.32C196.052 202.427 195.972 202.533 196.026 202.64C196.132 202.693 196.266 202.72 196.426 202.72C200.212 202.72 203.226 202.693 205.466 202.64C207.706 202.533 209.439 202.32 210.666 202C211.946 201.627 212.879 201.067 213.466 200.32C214.106 199.52 214.666 198.453 215.146 197.12C215.252 196.907 215.439 196.853 215.706 196.96C216.026 197.013 216.159 197.147 216.106 197.36L213.786 205.28C213.732 205.44 213.626 205.6 213.466 205.76C213.359 205.92 213.199 206 212.986 206C209.572 206 205.946 206 202.106 206C198.319 206 194.666 206 191.146 206C190.932 206 190.746 205.867 190.586 205.6C190.479 205.333 190.532 205.093 190.746 204.88ZM233.654 207.04C230.88 207.04 228.507 206.32 226.534 204.88C224.56 203.44 223.147 201.467 222.294 198.96C221.494 196.453 221.36 193.573 221.894 190.32C222.48 187.12 223.627 184.32 225.334 181.92C227.04 179.467 229.12 177.547 231.574 176.16C234.08 174.773 236.747 174.08 239.574 174.08C242.4 174.08 244.774 174.8 246.694 176.24C248.614 177.627 249.974 179.573 250.774 182.08C251.627 184.533 251.76 187.36 251.174 190.56C250.64 193.76 249.52 196.613 247.814 199.12C246.107 201.573 244.027 203.52 241.574 204.96C239.12 206.347 236.48 207.04 233.654 207.04ZM234.694 206.08C236.827 206.08 238.694 205.467 240.294 204.24C241.894 203.013 243.227 201.307 244.294 199.12C245.36 196.88 246.134 194.347 246.614 191.52C247.254 187.733 247.28 184.64 246.694 182.24C246.16 179.787 245.174 177.973 243.734 176.8C242.347 175.627 240.694 175.04 238.774 175.04C235.627 175.04 232.96 176.427 230.774 179.2C228.587 181.973 227.12 185.467 226.374 189.68C225.84 192.773 225.814 195.573 226.294 198.08C226.774 200.533 227.707 202.48 229.094 203.92C230.534 205.36 232.4 206.08 234.694 206.08ZM255.218 206C255.004 206 254.898 205.84 254.898 205.52C254.898 205.2 255.004 205.04 255.218 205.04C257.191 205.04 258.711 204.907 259.778 204.64C260.844 204.373 261.618 203.84 262.098 203.04C262.631 202.24 263.031 201.067 263.298 199.52L266.018 184.48C266.391 182.24 266.524 180.693 266.418 179.84C266.311 178.933 265.751 178.587 264.738 178.8C263.724 179.013 262.018 179.68 259.618 180.8C259.404 180.907 259.244 180.827 259.138 180.56C259.031 180.24 259.084 180.053 259.298 180L270.658 174.4C270.818 174.293 270.978 174.293 271.138 174.4C271.298 174.507 271.324 174.613 271.218 174.72L266.818 199.52C266.551 201.067 266.498 202.24 266.658 203.04C266.871 203.84 267.484 204.373 268.498 204.64C269.511 204.907 271.058 205.04 273.138 205.04C273.298 205.04 273.378 205.2 273.378 205.52C273.378 205.84 273.298 206 273.138 206C271.911 206 270.551 205.973 269.058 205.92C267.564 205.867 265.964 205.84 264.258 205.84C262.604 205.84 260.978 205.867 259.378 205.92C257.831 205.973 256.444 206 255.218 206ZM275.379 228C275.165 228.053 275.005 227.92 274.899 227.6C274.792 227.28 274.845 227.093 275.059 227.04C279.005 225.28 282.525 223.093 285.619 220.48C288.765 217.92 291.485 215.093 293.779 212C296.072 208.96 297.965 205.84 299.459 202.64C300.952 199.387 302.045 196.24 302.739 193.2C303.432 190.267 303.512 187.467 302.979 184.8C302.445 182.08 301.352 179.867 299.699 178.16C298.099 176.4 295.912 175.52 293.139 175.52C291.165 175.52 289.405 176.16 287.859 177.44C286.365 178.667 285.325 180.667 284.739 183.44C284.312 185.573 284.312 187.573 284.739 189.44C285.219 191.307 286.045 192.827 287.219 194C288.445 195.12 289.912 195.68 291.619 195.68C292.899 195.68 294.099 195.36 295.219 194.72C296.339 194.027 297.565 193.013 298.899 191.68C299.059 191.573 299.245 191.6 299.459 191.76C299.725 191.867 299.805 192 299.699 192.16C298.205 193.973 296.552 195.36 294.739 196.32C292.925 197.227 291.085 197.68 289.219 197.68C286.765 197.68 284.819 197.04 283.379 195.76C281.939 194.427 280.952 192.827 280.419 190.96C279.939 189.04 279.859 187.227 280.179 185.52C280.605 183.387 281.565 181.467 283.059 179.76C284.552 178 286.365 176.613 288.499 175.6C290.685 174.587 293.005 174.08 295.459 174.08C298.445 174.08 300.925 174.827 302.899 176.32C304.872 177.813 306.232 179.893 306.979 182.56C307.725 185.173 307.779 188.24 307.139 191.76C306.499 195.44 305.272 199.12 303.459 202.8C301.699 206.427 299.432 209.867 296.659 213.12C293.885 216.373 290.685 219.28 287.059 221.84C283.485 224.4 279.592 226.453 275.379 228Z" fill="url(#paint0_linear_83_138)"></path> <defs> <linearGradient id="paint0_linear_83_138" x1="76.2373" y1="181" x2="311" y2="181" gradientUnits="userSpaceOnUse"> <stop stop-color="#78B5AF"></stop> <stop offset="0.992708" stop-color="#9B54BC"></stop> </linearGradient> </defs> </svg> 