<?xml version="1.0" encoding="UTF-8"?> <svg xmlns="http://www.w3.org/2000/svg" width="356" height="362" viewBox="0 0 356 362" fill="none"> <path d="M45.8941 204.88C49.2007 202.427 52.0807 200.187 54.5341 198.16C56.9874 196.08 59.0674 194.16 60.7741 192.4C62.4807 190.64 63.8141 188.987 64.7741 187.44C65.7341 185.84 66.3207 184.267 66.5341 182.72C66.9074 180.64 66.6141 178.96 65.6541 177.68C64.6941 176.347 63.2541 175.68 61.3341 175.68C59.3607 175.68 57.5474 176.507 55.8941 178.16C54.2941 179.76 52.8007 182.16 51.4141 185.36C51.3607 185.573 51.1741 185.627 50.8541 185.52C50.5341 185.413 50.4007 185.253 50.4541 185.04L55.0141 173.28C55.1207 173.12 55.2807 173.067 55.4941 173.12C55.7607 173.173 55.8674 173.307 55.8141 173.52C55.5474 174.373 55.4941 174.933 55.6541 175.2C55.8674 175.467 56.1341 175.6 56.4541 175.6C57.2007 175.6 58.2141 175.36 59.4941 174.88C60.8274 174.347 62.3207 174.08 63.9741 174.08C66.3207 174.08 68.0807 174.827 69.2541 176.32C70.4807 177.813 70.8541 179.813 70.3741 182.32C70.1074 183.653 69.5741 185.013 68.7741 186.4C68.0274 187.733 66.9074 189.173 65.4141 190.72C63.9741 192.213 62.1074 193.92 59.8141 195.84C57.5207 197.707 54.7207 199.867 51.4141 202.32C51.2007 202.427 51.1207 202.533 51.1741 202.64C51.2807 202.693 51.4141 202.72 51.5741 202.72C55.3607 202.72 58.3741 202.693 60.6141 202.64C62.8541 202.533 64.5874 202.32 65.8141 202C67.0941 201.627 68.0274 201.067 68.6141 200.32C69.2541 199.52 69.8141 198.453 70.2941 197.12C70.4007 196.907 70.5874 196.853 70.8541 196.96C71.1741 197.013 71.3074 197.147 71.2541 197.36L68.9341 205.28C68.8807 205.44 68.7741 205.6 68.6141 205.76C68.5074 205.92 68.3474 206 68.1341 206C64.7207 206 61.0941 206 57.2541 206C53.4674 206 49.8141 206 46.2941 206C46.0807 206 45.8941 205.867 45.7341 205.6C45.6274 205.333 45.6807 205.093 45.8941 204.88ZM88.8022 207.04C86.0289 207.04 83.6555 206.32 81.6822 204.88C79.7089 203.44 78.2955 201.467 77.4422 198.96C76.6422 196.453 76.5089 193.573 77.0422 190.32C77.6289 187.12 78.7755 184.32 80.4822 181.92C82.1889 179.467 84.2689 177.547 86.7222 176.16C89.2289 174.773 91.8955 174.08 94.7222 174.08C97.5489 174.08 99.9222 174.8 101.842 176.24C103.762 177.627 105.122 179.573 105.922 182.08C106.776 184.533 106.909 187.36 106.322 190.56C105.789 193.76 104.669 196.613 102.962 199.12C101.256 201.573 99.1755 203.52 96.7222 204.96C94.2689 206.347 91.6289 207.04 88.8022 207.04ZM89.8422 206.08C91.9755 206.08 93.8422 205.467 95.4422 204.24C97.0422 203.013 98.3755 201.307 99.4422 199.12C100.509 196.88 101.282 194.347 101.762 191.52C102.402 187.733 102.429 184.64 101.842 182.24C101.309 179.787 100.322 177.973 98.8822 176.8C97.4955 175.627 95.8422 175.04 93.9222 175.04C90.7755 175.04 88.1089 176.427 85.9222 179.2C83.7355 181.973 82.2689 185.467 81.5222 189.68C80.9889 192.773 80.9622 195.573 81.4422 198.08C81.9222 200.533 82.8555 202.48 84.2422 203.92C85.6822 205.36 87.5489 206.08 89.8422 206.08ZM110.366 206C110.153 206 110.046 205.84 110.046 205.52C110.046 205.2 110.153 205.04 110.366 205.04C112.339 205.04 113.859 204.907 114.926 204.64C115.993 204.373 116.766 203.84 117.246 203.04C117.779 202.24 118.179 201.067 118.446 199.52L121.166 184.48C121.539 182.24 121.673 180.693 121.566 179.84C121.459 178.933 120.899 178.587 119.886 178.8C118.873 179.013 117.166 179.68 114.766 180.8C114.553 180.907 114.393 180.827 114.286 180.56C114.179 180.24 114.233 180.053 114.446 180L125.806 174.4C125.966 174.293 126.126 174.293 126.286 174.4C126.446 174.507 126.473 174.613 126.366 174.72L121.966 199.52C121.699 201.067 121.646 202.24 121.806 203.04C122.019 203.84 122.633 204.373 123.646 204.64C124.659 204.907 126.206 205.04 128.286 205.04C128.446 205.04 128.526 205.2 128.526 205.52C128.526 205.84 128.446 206 128.286 206C127.059 206 125.699 205.973 124.206 205.92C122.713 205.867 121.113 205.84 119.406 205.84C117.753 205.84 116.126 205.867 114.526 205.92C112.979 205.973 111.593 206 110.366 206ZM130.527 228C130.314 228.053 130.154 227.92 130.047 227.6C129.941 227.28 129.994 227.093 130.207 227.04C134.154 225.28 137.674 223.093 140.767 220.48C143.914 217.92 146.634 215.093 148.927 212C151.221 208.96 153.114 205.84 154.607 202.64C156.101 199.387 157.194 196.24 157.887 193.2C158.581 190.267 158.661 187.467 158.127 184.8C157.594 182.08 156.501 179.867 154.847 178.16C153.247 176.4 151.061 175.52 148.287 175.52C146.314 175.52 144.554 176.16 143.007 177.44C141.514 178.667 140.474 180.667 139.887 183.44C139.461 185.573 139.461 187.573 139.887 189.44C140.367 191.307 141.194 192.827 142.367 194C143.594 195.12 145.061 195.68 146.767 195.68C148.047 195.68 149.247 195.36 150.367 194.72C151.487 194.027 152.714 193.013 154.047 191.68C154.207 191.573 154.394 191.6 154.607 191.76C154.874 191.867 154.954 192 154.847 192.16C153.354 193.973 151.701 195.36 149.887 196.32C148.074 197.227 146.234 197.68 144.367 197.68C141.914 197.68 139.967 197.04 138.527 195.76C137.087 194.427 136.101 192.827 135.567 190.96C135.087 189.04 135.007 187.227 135.327 185.52C135.754 183.387 136.714 181.467 138.207 179.76C139.701 178 141.514 176.613 143.647 175.6C145.834 174.587 148.154 174.08 150.607 174.08C153.594 174.08 156.074 174.827 158.047 176.32C160.021 177.813 161.381 179.893 162.127 182.56C162.874 185.173 162.927 188.24 162.287 191.76C161.647 195.44 160.421 199.12 158.607 202.8C156.847 206.427 154.581 209.867 151.807 213.12C149.034 216.373 145.834 219.28 142.207 221.84C138.634 224.4 134.741 226.453 130.527 228ZM168.443 192.56C168.283 192.56 168.176 192.293 168.123 191.76C168.069 191.227 168.043 190.667 168.043 190.08C168.096 189.493 168.176 189.173 168.283 189.12L188.283 185.44C188.443 185.387 188.523 185.653 188.523 186.24C188.576 186.773 188.576 187.333 188.523 187.92C188.523 188.453 188.443 188.747 188.283 188.8L168.443 192.56ZM190.738 204.88C194.044 202.427 196.924 200.187 199.378 198.16C201.831 196.08 203.911 194.16 205.618 192.4C207.324 190.64 208.658 188.987 209.618 187.44C210.578 185.84 211.164 184.267 211.378 182.72C211.751 180.64 211.458 178.96 210.498 177.68C209.538 176.347 208.098 175.68 206.178 175.68C204.204 175.68 202.391 176.507 200.738 178.16C199.138 179.76 197.644 182.16 196.258 185.36C196.204 185.573 196.018 185.627 195.698 185.52C195.378 185.413 195.244 185.253 195.298 185.04L199.858 173.28C199.964 173.12 200.124 173.067 200.338 173.12C200.604 173.173 200.711 173.307 200.658 173.52C200.391 174.373 200.338 174.933 200.498 175.2C200.711 175.467 200.978 175.6 201.298 175.6C202.044 175.6 203.058 175.36 204.338 174.88C205.671 174.347 207.164 174.08 208.818 174.08C211.164 174.08 212.924 174.827 214.098 176.32C215.324 177.813 215.698 179.813 215.218 182.32C214.951 183.653 214.418 185.013 213.618 186.4C212.871 187.733 211.751 189.173 210.258 190.72C208.818 192.213 206.951 193.92 204.658 195.84C202.364 197.707 199.564 199.867 196.258 202.32C196.044 202.427 195.964 202.533 196.018 202.64C196.124 202.693 196.258 202.72 196.418 202.72C200.204 202.72 203.218 202.693 205.458 202.64C207.698 202.533 209.431 202.32 210.658 202C211.938 201.627 212.871 201.067 213.458 200.32C214.098 199.52 214.658 198.453 215.138 197.12C215.244 196.907 215.431 196.853 215.698 196.96C216.018 197.013 216.151 197.147 216.098 197.36L213.778 205.28C213.724 205.44 213.618 205.6 213.458 205.76C213.351 205.92 213.191 206 212.978 206C209.564 206 205.938 206 202.098 206C198.311 206 194.658 206 191.138 206C190.924 206 190.738 205.867 190.578 205.6C190.471 205.333 190.524 205.093 190.738 204.88ZM233.646 207.04C230.873 207.04 228.499 206.32 226.526 204.88C224.553 203.44 223.139 201.467 222.286 198.96C221.486 196.453 221.353 193.573 221.886 190.32C222.473 187.12 223.619 184.32 225.326 181.92C227.033 179.467 229.113 177.547 231.566 176.16C234.073 174.773 236.739 174.08 239.566 174.08C242.393 174.08 244.766 174.8 246.686 176.24C248.606 177.627 249.966 179.573 250.766 182.08C251.619 184.533 251.753 187.36 251.166 190.56C250.633 193.76 249.513 196.613 247.806 199.12C246.099 201.573 244.019 203.52 241.566 204.96C239.113 206.347 236.473 207.04 233.646 207.04ZM234.686 206.08C236.819 206.08 238.686 205.467 240.286 204.24C241.886 203.013 243.219 201.307 244.286 199.12C245.353 196.88 246.126 194.347 246.606 191.52C247.246 187.733 247.273 184.64 246.686 182.24C246.153 179.787 245.166 177.973 243.726 176.8C242.339 175.627 240.686 175.04 238.766 175.04C235.619 175.04 232.953 176.427 230.766 179.2C228.579 181.973 227.113 185.467 226.366 189.68C225.833 192.773 225.806 195.573 226.286 198.08C226.766 200.533 227.699 202.48 229.086 203.92C230.526 205.36 232.393 206.08 234.686 206.08ZM254.41 204.88C257.716 202.427 260.596 200.187 263.05 198.16C265.503 196.08 267.583 194.16 269.29 192.4C270.996 190.64 272.33 188.987 273.29 187.44C274.25 185.84 274.836 184.267 275.05 182.72C275.423 180.64 275.13 178.96 274.17 177.68C273.21 176.347 271.77 175.68 269.85 175.68C267.876 175.68 266.063 176.507 264.41 178.16C262.81 179.76 261.316 182.16 259.93 185.36C259.876 185.573 259.69 185.627 259.37 185.52C259.05 185.413 258.916 185.253 258.97 185.04L263.53 173.28C263.636 173.12 263.796 173.067 264.01 173.12C264.276 173.173 264.383 173.307 264.33 173.52C264.063 174.373 264.01 174.933 264.17 175.2C264.383 175.467 264.65 175.6 264.97 175.6C265.716 175.6 266.73 175.36 268.01 174.88C269.343 174.347 270.836 174.08 272.49 174.08C274.836 174.08 276.596 174.827 277.77 176.32C278.996 177.813 279.37 179.813 278.89 182.32C278.623 183.653 278.09 185.013 277.29 186.4C276.543 187.733 275.423 189.173 273.93 190.72C272.49 192.213 270.623 193.92 268.33 195.84C266.036 197.707 263.236 199.867 259.93 202.32C259.716 202.427 259.636 202.533 259.69 202.64C259.796 202.693 259.93 202.72 260.09 202.72C263.876 202.72 266.89 202.693 269.13 202.64C271.37 202.533 273.103 202.32 274.33 202C275.61 201.627 276.543 201.067 277.13 200.32C277.77 199.52 278.33 198.453 278.81 197.12C278.916 196.907 279.103 196.853 279.37 196.96C279.69 197.013 279.823 197.147 279.77 197.36L277.45 205.28C277.396 205.44 277.29 205.6 277.13 205.76C277.023 205.92 276.863 206 276.65 206C273.236 206 269.61 206 265.77 206C261.983 206 258.33 206 254.81 206C254.596 206 254.41 205.867 254.25 205.6C254.143 205.333 254.196 205.093 254.41 204.88ZM283.238 204.88C286.544 202.427 289.424 200.187 291.878 198.16C294.331 196.08 296.411 194.16 298.118 192.4C299.824 190.64 301.158 188.987 302.118 187.44C303.078 185.84 303.664 184.267 303.878 182.72C304.251 180.64 303.958 178.96 302.998 177.68C302.038 176.347 300.598 175.68 298.678 175.68C296.704 175.68 294.891 176.507 293.238 178.16C291.638 179.76 290.144 182.16 288.758 185.36C288.704 185.573 288.518 185.627 288.198 185.52C287.878 185.413 287.744 185.253 287.798 185.04L292.358 173.28C292.464 173.12 292.624 173.067 292.838 173.12C293.104 173.173 293.211 173.307 293.158 173.52C292.891 174.373 292.838 174.933 292.998 175.2C293.211 175.467 293.478 175.6 293.798 175.6C294.544 175.6 295.558 175.36 296.838 174.88C298.171 174.347 299.664 174.08 301.318 174.08C303.664 174.08 305.424 174.827 306.598 176.32C307.824 177.813 308.198 179.813 307.718 182.32C307.451 183.653 306.918 185.013 306.118 186.4C305.371 187.733 304.251 189.173 302.758 190.72C301.318 192.213 299.451 193.92 297.158 195.84C294.864 197.707 292.064 199.867 288.758 202.32C288.544 202.427 288.464 202.533 288.518 202.64C288.624 202.693 288.758 202.72 288.918 202.72C292.704 202.72 295.718 202.693 297.958 202.64C300.198 202.533 301.931 202.32 303.158 202C304.438 201.627 305.371 201.067 305.958 200.32C306.598 199.52 307.158 198.453 307.638 197.12C307.744 196.907 307.931 196.853 308.198 196.96C308.518 197.013 308.651 197.147 308.598 197.36L306.278 205.28C306.224 205.44 306.118 205.6 305.958 205.76C305.851 205.92 305.691 206 305.478 206C302.064 206 298.438 206 294.598 206C290.811 206 287.158 206 283.638 206C283.424 206 283.238 205.867 283.078 205.6C282.971 205.333 283.024 205.093 283.238 204.88Z" fill="url(#paint0_linear_83_142)"></path> <defs> <linearGradient id="paint0_linear_83_142" x1="76.3547" y1="181" x2="312" y2="181" gradientUnits="userSpaceOnUse"> <stop stop-color="#78B5AF"></stop> <stop offset="0.992708" stop-color="#9B54BC"></stop> </linearGradient> </defs> </svg> 