<?xml version="1.0" encoding="UTF-8"?> <svg xmlns="http://www.w3.org/2000/svg" width="164" height="165" viewBox="0 0 164 165" fill="none"> <ellipse cx="82.5" cy="82" rx="28.5" ry="30" fill="#86B9B4"></ellipse> <circle cx="82.5" cy="80.5" r="26.5" fill="#1C1C1C"></circle> <path d="M89.152 71.648V72.932C89.152 73.316 89.108 73.628 89.02 73.868C88.94 74.1 88.86 74.296 88.78 74.456L82.216 87.992C82.08 88.272 81.888 88.512 81.64 88.712C81.392 88.904 81.056 89 80.632 89H78.484L85.204 75.74C85.484 75.196 85.796 74.728 86.14 74.336H77.836C77.652 74.336 77.492 74.268 77.356 74.132C77.22 73.996 77.152 73.836 77.152 73.652V71.648H89.152Z" fill="white"></path> </svg> 