<?xml version="1.0" encoding="UTF-8"?> <svg xmlns="http://www.w3.org/2000/svg" width="164" height="165" viewBox="0 0 164 165" fill="none"> <ellipse cx="82.5" cy="82" rx="28.5" ry="30" fill="#86B9B4"></ellipse> <circle cx="82.5" cy="80.5" r="26.5" fill="#1C1C1C"></circle> <path d="M83.5 71.456C84.3 71.456 85.02 71.572 85.66 71.804C86.308 72.028 86.86 72.344 87.316 72.752C87.772 73.152 88.12 73.624 88.36 74.168C88.608 74.712 88.732 75.3 88.732 75.932C88.732 76.484 88.668 76.972 88.54 77.396C88.42 77.812 88.24 78.176 88 78.488C87.768 78.8 87.48 79.064 87.136 79.28C86.8 79.496 86.416 79.676 85.984 79.82C87.024 80.148 87.8 80.648 88.312 81.32C88.824 81.992 89.08 82.836 89.08 83.852C89.08 84.716 88.92 85.48 88.6 86.144C88.28 86.808 87.848 87.368 87.304 87.824C86.76 88.272 86.128 88.612 85.408 88.844C84.696 89.076 83.94 89.192 83.14 89.192C82.268 89.192 81.508 89.092 80.86 88.892C80.212 88.692 79.648 88.396 79.168 88.004C78.688 87.612 78.28 87.132 77.944 86.564C77.608 85.996 77.32 85.34 77.08 84.596L78.388 84.056C78.612 83.96 78.84 83.912 79.072 83.912C79.28 83.912 79.464 83.956 79.624 84.044C79.792 84.132 79.92 84.26 80.008 84.428C80.152 84.708 80.308 84.984 80.476 85.256C80.652 85.528 80.86 85.772 81.1 85.988C81.34 86.196 81.62 86.368 81.94 86.504C82.268 86.632 82.656 86.696 83.104 86.696C83.608 86.696 84.048 86.616 84.424 86.456C84.8 86.288 85.112 86.072 85.36 85.808C85.616 85.544 85.804 85.252 85.924 84.932C86.052 84.604 86.116 84.276 86.116 83.948C86.116 83.532 86.072 83.156 85.984 82.82C85.896 82.476 85.712 82.184 85.432 81.944C85.152 81.704 84.748 81.516 84.22 81.38C83.7 81.244 83 81.176 82.12 81.176V79.064C82.848 79.056 83.452 78.988 83.932 78.86C84.412 78.732 84.792 78.556 85.072 78.332C85.36 78.1 85.56 77.824 85.672 77.504C85.784 77.184 85.84 76.832 85.84 76.448C85.84 75.624 85.616 75.004 85.168 74.588C84.72 74.164 84.108 73.952 83.332 73.952C82.628 73.952 82.044 74.14 81.58 74.516C81.116 74.884 80.792 75.36 80.608 75.944C80.512 76.248 80.38 76.468 80.212 76.604C80.044 76.732 79.824 76.796 79.552 76.796C79.424 76.796 79.288 76.784 79.144 76.76L77.584 76.484C77.704 75.652 77.936 74.924 78.28 74.3C78.624 73.668 79.052 73.144 79.564 72.728C80.084 72.304 80.676 71.988 81.34 71.78C82.012 71.564 82.732 71.456 83.5 71.456Z" fill="white"></path> </svg> 