<?xml version="1.0" encoding="UTF-8"?> <svg xmlns="http://www.w3.org/2000/svg" width="164" height="165" viewBox="0 0 164 165" fill="none"> <ellipse cx="82.5" cy="82" rx="28.5" ry="30" fill="#86B9B4"></ellipse> <circle cx="82.5" cy="80.5" r="26.5" fill="#1C1C1C"></circle> <path d="M87.304 82.46H89.488V84.176C89.488 84.336 89.436 84.476 89.332 84.596C89.228 84.708 89.076 84.764 88.876 84.764H87.304V89H84.712V84.764H77.392C77.192 84.764 77.016 84.704 76.864 84.584C76.712 84.456 76.616 84.3 76.576 84.116L76.276 82.616L84.496 71.636H87.304V82.46ZM84.712 76.784C84.712 76.528 84.72 76.252 84.736 75.956C84.752 75.66 84.78 75.352 84.82 75.032L79.432 82.46H84.712V76.784Z" fill="white"></path> </svg> 