<?xml version="1.0" encoding="UTF-8"?> <svg xmlns="http://www.w3.org/2000/svg" width="164" height="165" viewBox="0 0 164 165" fill="none"> <ellipse cx="82.5" cy="82" rx="28.5" ry="30" fill="#86B9B4"></ellipse> <circle cx="82.5" cy="80.5" r="26.5" fill="#1C1C1C"></circle> <path d="M72.228 88.78H75.744V78.664C75.744 78.272 75.756 77.86 75.78 77.428L73.284 79.516C73.18 79.604 73.072 79.664 72.96 79.696C72.856 79.728 72.752 79.744 72.648 79.744C72.488 79.744 72.34 79.712 72.204 79.648C72.076 79.576 71.98 79.496 71.916 79.408L70.98 78.124L76.272 73.624H78.708V88.78H81.828V91H72.228V88.78ZM96.2419 82.324C96.2419 83.836 96.0779 85.152 95.7499 86.272C95.4299 87.384 94.9819 88.304 94.4059 89.032C93.8379 89.76 93.1619 90.304 92.3779 90.664C91.6019 91.016 90.7619 91.192 89.8579 91.192C88.9539 91.192 88.1139 91.016 87.3379 90.664C86.5699 90.304 85.9019 89.76 85.3339 89.032C84.7659 88.304 84.3219 87.384 84.0019 86.272C83.6819 85.152 83.5219 83.836 83.5219 82.324C83.5219 80.804 83.6819 79.488 84.0019 78.376C84.3219 77.264 84.7659 76.344 85.3339 75.616C85.9019 74.888 86.5699 74.348 87.3379 73.996C88.1139 73.636 88.9539 73.456 89.8579 73.456C90.7619 73.456 91.6019 73.636 92.3779 73.996C93.1619 74.348 93.8379 74.888 94.4059 75.616C94.9819 76.344 95.4299 77.264 95.7499 78.376C96.0779 79.488 96.2419 80.804 96.2419 82.324ZM93.1819 82.324C93.1819 81.068 93.0899 80.028 92.9059 79.204C92.7219 78.38 92.4739 77.724 92.1619 77.236C91.8579 76.748 91.5059 76.408 91.1059 76.216C90.7059 76.016 90.2899 75.916 89.8579 75.916C89.4339 75.916 89.0219 76.016 88.6219 76.216C88.2299 76.408 87.8819 76.748 87.5779 77.236C87.2739 77.724 87.0299 78.38 86.8459 79.204C86.6699 80.028 86.5819 81.068 86.5819 82.324C86.5819 83.58 86.6699 84.62 86.8459 85.444C87.0299 86.268 87.2739 86.924 87.5779 87.412C87.8819 87.9 88.2299 88.244 88.6219 88.444C89.0219 88.636 89.4339 88.732 89.8579 88.732C90.2899 88.732 90.7059 88.636 91.1059 88.444C91.5059 88.244 91.8579 87.9 92.1619 87.412C92.4739 86.924 92.7219 86.268 92.9059 85.444C93.0899 84.62 93.1819 83.58 93.1819 82.324Z" fill="white"></path> </svg> 