<?xml version="1.0" encoding="UTF-8"?> <svg xmlns="http://www.w3.org/2000/svg" width="848" height="434" viewBox="0 0 848 434" fill="none"> <path opacity="0.5" d="M243.829 212.393C243.667 212.637 243.321 212.739 242.792 212.698C242.264 212.657 241.715 212.556 241.145 212.393C240.576 212.19 240.108 211.986 239.742 211.783C239.417 211.58 239.315 211.437 239.437 211.356L248.404 206.049C248.486 205.968 248.608 205.988 248.77 206.11C248.933 206.232 248.974 206.334 248.892 206.415L243.829 212.393ZM252.369 216.785L250.051 206.659C250.011 206.578 250.072 206.476 250.234 206.354C250.397 206.191 250.499 206.151 250.539 206.232L254.748 212.942C254.911 213.186 254.891 213.552 254.687 214.04C254.484 214.528 254.199 215.016 253.833 215.504C253.467 215.992 253.142 216.378 252.857 216.663C252.573 216.907 252.41 216.948 252.369 216.785ZM248.221 204.829L240.962 201.901C240.678 201.779 240.474 201.474 240.352 200.986C240.23 200.457 240.169 199.888 240.169 199.278C240.169 198.668 240.21 198.18 240.291 197.814C240.373 197.407 240.474 197.265 240.596 197.387L248.465 204.28C248.547 204.321 248.547 204.443 248.465 204.646C248.425 204.809 248.343 204.87 248.221 204.829ZM261.519 206.232L251.149 205.317C251.068 205.317 250.987 205.236 250.905 205.073C250.865 204.87 250.885 204.748 250.966 204.707L258.652 202.816C258.937 202.735 259.283 202.877 259.689 203.243C260.096 203.568 260.462 203.975 260.787 204.463C261.153 204.91 261.418 205.317 261.58 205.683C261.743 206.049 261.723 206.232 261.519 206.232ZM249.563 203.731L250.173 195.923C250.173 195.598 250.397 195.313 250.844 195.069C251.292 194.784 251.8 194.561 252.369 194.398C252.939 194.195 253.427 194.073 253.833 194.032C254.24 193.991 254.403 194.052 254.321 194.215L250.234 203.731C250.194 203.853 250.072 203.914 249.868 203.914C249.665 203.914 249.563 203.853 249.563 203.731ZM297.646 235.268C297.768 235.268 297.829 235.39 297.829 235.634C297.829 235.878 297.768 236 297.646 236C296.752 236 295.755 235.98 294.657 235.939C293.559 235.898 292.441 235.878 291.302 235.878C290.001 235.878 288.801 235.898 287.703 235.939C286.646 235.98 285.711 236 284.897 236C284.735 236 284.653 235.878 284.653 235.634C284.653 235.39 284.735 235.268 284.897 235.268C286.361 235.268 287.459 235.166 288.191 234.963C288.923 234.719 289.452 234.292 289.777 233.682C290.143 233.031 290.408 232.137 290.57 230.998L295.572 202.877C295.776 201.616 295.837 200.742 295.755 200.254C295.715 199.725 295.369 199.42 294.718 199.339C294.108 199.217 293.031 199.156 291.485 199.156H280.627C279.001 199.156 277.821 199.237 277.089 199.4C276.398 199.522 275.93 199.847 275.686 200.376C275.442 200.905 275.219 201.799 275.015 203.06L270.074 231.12C269.871 232.299 269.83 233.194 269.952 233.804C270.074 234.373 270.461 234.76 271.111 234.963C271.762 235.166 272.779 235.268 274.161 235.268C274.365 235.268 274.466 235.39 274.466 235.634C274.466 235.878 274.365 236 274.161 236C273.267 236 272.291 235.98 271.233 235.939C270.176 235.898 269.037 235.878 267.817 235.878C266.597 235.878 265.438 235.898 264.34 235.939C263.242 235.98 262.287 236 261.473 236C261.311 236 261.229 235.878 261.229 235.634C261.229 235.39 261.311 235.268 261.473 235.268C262.897 235.268 263.974 235.166 264.706 234.963C265.438 234.719 265.987 234.292 266.353 233.682C266.719 233.031 266.984 232.137 267.146 230.998L272.087 203.487C272.372 201.698 272.291 200.437 271.843 199.705C271.396 198.973 270.135 198.607 268.061 198.607C267.939 198.607 267.878 198.485 267.878 198.241C267.878 197.997 267.939 197.875 268.061 197.875C268.712 197.875 269.932 197.895 271.721 197.936C273.551 197.977 275.707 198.017 278.187 198.058C280.709 198.058 283.352 198.058 286.117 198.058C289.127 198.058 291.933 198.058 294.535 198.058C297.179 198.017 299.375 197.977 301.123 197.936C302.872 197.895 303.889 197.875 304.173 197.875C304.336 197.875 304.417 197.997 304.417 198.241C304.417 198.485 304.336 198.607 304.173 198.607C302.059 198.607 300.635 199.014 299.903 199.827C299.171 200.6 298.643 201.86 298.317 203.609L293.498 231.12C293.173 232.869 293.254 234.007 293.742 234.536C294.271 235.024 295.572 235.268 297.646 235.268ZM311.595 236.854C309.724 236.854 308.158 236.305 306.898 235.207C305.678 234.068 304.824 232.543 304.336 230.632C303.888 228.721 303.888 226.586 304.336 224.227C304.783 221.868 305.617 219.754 306.837 217.883C308.097 215.972 309.602 214.467 311.351 213.369C313.14 212.23 315.031 211.661 317.024 211.661C319.098 211.661 320.765 212.251 322.026 213.43C323.286 214.569 324.12 216.094 324.527 218.005C324.933 219.916 324.913 221.99 324.466 224.227C323.978 226.748 323.063 228.965 321.721 230.876C320.379 232.787 318.813 234.272 317.024 235.329C315.234 236.346 313.425 236.854 311.595 236.854ZM313.73 235.329C315.519 235.329 317.166 234.597 318.671 233.133C320.175 231.669 321.172 229.595 321.66 226.911C321.944 225.488 322.026 223.983 321.904 222.397C321.822 220.811 321.517 219.327 320.989 217.944C320.501 216.521 319.769 215.362 318.793 214.467C317.857 213.572 316.678 213.125 315.255 213.125C313.425 213.125 311.737 213.898 310.192 215.443C308.687 216.988 307.67 219.042 307.142 221.604C306.816 223.109 306.715 224.654 306.837 226.24C306.959 227.826 307.284 229.31 307.813 230.693C308.382 232.076 309.155 233.194 310.131 234.048C311.147 234.902 312.347 235.329 313.73 235.329ZM335.963 236.793C334.255 236.793 332.832 236.407 331.693 235.634C330.595 234.821 329.762 233.763 329.192 232.462C328.664 231.161 328.359 229.737 328.277 228.192C328.196 226.647 328.318 225.142 328.643 223.678C329.213 221.075 330.189 218.9 331.571 217.151C332.954 215.362 334.54 213.999 336.329 213.064C338.119 212.129 339.867 211.661 341.575 211.661C342.551 211.661 343.446 211.824 344.259 212.149C345.073 212.434 345.703 212.84 346.15 213.369C346.598 213.898 346.781 214.487 346.699 215.138C346.659 215.585 346.496 215.992 346.211 216.358C345.967 216.724 345.561 216.907 344.991 216.907C344.544 216.907 344.137 216.765 343.771 216.48C343.446 216.155 343.182 215.707 342.978 215.138C342.856 214.691 342.531 214.203 342.002 213.674C341.474 213.145 340.66 212.881 339.562 212.881C338.098 212.881 336.838 213.308 335.78 214.162C334.764 214.975 333.93 216.053 333.279 217.395C332.669 218.737 332.202 220.221 331.876 221.848C331.47 224.085 331.388 226.199 331.632 228.192C331.917 230.185 332.588 231.811 333.645 233.072C334.743 234.292 336.268 234.902 338.22 234.902C339.725 234.902 341.006 234.597 342.063 233.987C343.121 233.336 344.097 232.645 344.991 231.913C345.113 231.832 345.256 231.872 345.418 232.035C345.581 232.198 345.601 232.34 345.479 232.462C343.771 233.967 342.124 235.065 340.538 235.756C338.993 236.447 337.468 236.793 335.963 236.793ZM348.757 236.549C348.106 236.549 347.577 236.407 347.171 236.122C346.764 235.837 346.622 235.329 346.744 234.597C346.906 233.906 347.252 233.499 347.781 233.377C348.309 233.255 348.899 233.194 349.55 233.194C350.892 233.194 351.99 232.686 352.844 231.669C353.738 230.612 354.511 229.29 355.162 227.704C355.812 226.077 356.443 224.349 357.053 222.519C357.703 220.689 358.435 218.981 359.249 217.395C360.103 215.768 361.16 214.447 362.421 213.43C363.681 212.373 365.247 211.844 367.118 211.844C368.256 211.844 369.09 212.251 369.619 213.064C370.147 213.837 370.249 215.138 369.924 216.968L367.423 230.571C367.219 231.832 367.219 232.767 367.423 233.377C367.626 233.987 367.992 234.292 368.521 234.292C368.968 234.292 369.578 234.048 370.351 233.56C371.123 233.072 371.957 232.36 372.852 231.425C373.014 231.262 373.177 231.283 373.34 231.486C373.502 231.649 373.523 231.791 373.401 231.913C372.018 233.458 370.757 234.617 369.619 235.39C368.521 236.163 367.443 236.549 366.386 236.549C365.41 236.549 364.82 236.122 364.617 235.268C364.413 234.373 364.495 232.808 364.861 230.571L367.179 217.578C367.423 216.195 367.362 215.28 366.996 214.833C366.67 214.345 366.284 214.101 365.837 214.101C364.373 214.101 363.112 214.65 362.055 215.748C361.038 216.805 360.143 218.188 359.371 219.896C358.598 221.604 357.866 223.414 357.175 225.325C356.483 227.236 355.751 229.046 354.979 230.754C354.247 232.462 353.372 233.865 352.356 234.963C351.38 236.02 350.18 236.549 348.757 236.549ZM384.093 236.732C381.979 236.732 380.311 236.183 379.091 235.085C377.871 233.946 377.058 232.462 376.651 230.632C376.285 228.802 376.306 226.83 376.712 224.715C376.956 223.21 377.485 221.685 378.298 220.14C379.152 218.595 380.189 217.192 381.409 215.931C382.67 214.63 384.053 213.593 385.557 212.82C387.103 212.047 388.729 211.661 390.437 211.661C391.861 211.661 392.918 211.966 393.609 212.576C394.301 213.145 394.545 213.938 394.341 214.955C394.138 215.89 393.569 216.805 392.633 217.7C391.739 218.554 390.559 219.347 389.095 220.079C387.672 220.77 386.066 221.38 384.276 221.909C382.528 222.397 380.698 222.763 378.786 223.007L378.908 222.214C382.08 221.767 384.744 221.055 386.899 220.079C389.095 219.062 390.397 217.781 390.803 216.236C391.129 215.097 390.925 214.325 390.193 213.918C389.461 213.511 388.668 213.308 387.814 213.308C386.35 213.308 385.069 213.735 383.971 214.589C382.873 215.443 381.979 216.582 381.287 218.005C380.637 219.428 380.169 220.994 379.884 222.702C379.437 225.02 379.376 227.094 379.701 228.924C380.067 230.713 380.779 232.137 381.836 233.194C382.934 234.251 384.358 234.78 386.106 234.78C387.123 234.78 388.16 234.638 389.217 234.353C390.315 234.068 391.373 233.54 392.389 232.767C392.511 232.686 392.633 232.726 392.755 232.889C392.918 233.052 392.938 233.194 392.816 233.316C391.271 234.536 389.787 235.41 388.363 235.939C386.94 236.468 385.517 236.732 384.093 236.732ZM405.374 236.854C403.666 236.854 402.263 236.488 401.165 235.756C400.067 235.024 399.213 234.068 398.603 232.889C398.034 231.71 397.668 230.429 397.505 229.046C397.342 227.663 397.383 226.301 397.627 224.959C398.196 221.787 399.193 219.266 400.616 217.395C402.08 215.524 403.707 214.182 405.496 213.369C407.326 212.515 409.054 212.088 410.681 212.088C412.104 212.088 413.365 212.373 414.463 212.942C415.602 213.471 416.618 214.203 417.513 215.138L416.72 217.639C415.907 216.053 414.829 214.935 413.487 214.284C412.145 213.633 410.823 213.308 409.522 213.308C408.261 213.308 407.001 213.593 405.74 214.162C404.479 214.691 403.361 215.626 402.385 216.968C401.45 218.269 400.779 220.099 400.372 222.458C400.128 223.881 400.047 225.345 400.128 226.85C400.25 228.314 400.555 229.697 401.043 230.998C401.531 232.259 402.243 233.275 403.178 234.048C404.113 234.821 405.313 235.207 406.777 235.207C408.729 235.207 410.396 234.251 411.779 232.34C413.162 230.429 414.26 227.297 415.073 222.946C415.48 220.75 415.785 218.493 415.988 216.175C416.191 213.816 416.252 211.519 416.171 209.282C416.09 207.045 415.866 204.931 415.5 202.938C415.134 200.945 414.585 199.197 413.853 197.692C413.162 196.187 412.267 195.008 411.169 194.154C410.112 193.259 408.831 192.812 407.326 192.812C406.025 192.812 404.723 193.198 403.422 193.971C403.259 194.012 403.117 193.951 402.995 193.788C402.914 193.585 402.914 193.463 402.995 193.422C403.605 192.975 404.398 192.548 405.374 192.141C406.391 191.734 407.509 191.531 408.729 191.531C410.559 191.531 412.125 192.08 413.426 193.178C414.768 194.235 415.846 195.72 416.659 197.631C417.513 199.502 418.123 201.677 418.489 204.158C418.855 206.598 418.997 209.221 418.916 212.027C418.835 214.792 418.55 217.619 418.062 220.506C417.493 223.963 416.598 226.911 415.378 229.351C414.199 231.791 412.755 233.662 411.047 234.963C409.38 236.224 407.489 236.854 405.374 236.854ZM425.393 236.488C424.864 236.488 424.519 236.447 424.356 236.366C424.193 236.325 424.112 236.244 424.112 236.122C424.112 236 424.214 235.471 424.417 234.536C424.661 233.56 424.864 232.543 425.027 231.486L427.528 217.883C427.935 215.402 427.589 214.162 426.491 214.162C426.003 214.162 425.373 214.406 424.6 214.894C423.827 215.382 422.994 216.094 422.099 217.029C421.977 217.192 421.814 217.192 421.611 217.029C421.448 216.826 421.448 216.663 421.611 216.541C422.953 214.996 424.193 213.837 425.332 213.064C426.511 212.291 427.609 211.905 428.626 211.905C429.561 211.905 430.131 212.352 430.334 213.247C430.578 214.101 430.497 215.646 430.09 217.883L426.979 235.634C426.898 236.203 426.369 236.488 425.393 236.488ZM427.528 224.776L427.772 223.678H441.802L441.619 224.776H427.528ZM440.826 236.488C439.85 236.488 439.24 236.041 438.996 235.146C438.793 234.251 438.894 232.706 439.301 230.51L442.473 212.759C442.554 212.19 443.063 211.905 443.998 211.905C444.567 211.905 444.913 211.946 445.035 212.027C445.198 212.068 445.279 212.149 445.279 212.271C445.279 212.393 445.177 212.922 444.974 213.857C444.771 214.792 444.567 215.809 444.364 216.907L441.863 230.51C441.456 232.991 441.822 234.231 442.961 234.231C444.018 234.231 445.462 233.275 447.292 231.364C447.455 231.201 447.617 231.201 447.78 231.364C447.943 231.527 447.943 231.689 447.78 231.852C446.438 233.357 445.198 234.516 444.059 235.329C442.961 236.102 441.883 236.488 440.826 236.488ZM456.918 236.793C455.169 236.793 453.99 236.163 453.38 234.902C452.81 233.641 452.831 231.588 453.441 228.741L455.637 217.883C455.881 216.622 455.901 215.687 455.698 215.077C455.494 214.467 455.128 214.162 454.6 214.162C454.152 214.162 453.563 214.426 452.831 214.955C452.099 215.484 451.285 216.216 450.391 217.151C450.228 217.314 450.065 217.314 449.903 217.151C449.74 216.988 449.74 216.826 449.903 216.663C451.245 215.118 452.465 213.938 453.563 213.125C454.661 212.312 455.718 211.905 456.735 211.905C457.67 211.905 458.26 212.352 458.504 213.247C458.788 214.101 458.687 215.646 458.199 217.883L456.247 227.582C455.718 230.022 455.657 231.832 456.064 233.011C456.47 234.15 457.324 234.719 458.626 234.719C459.968 234.719 461.371 233.865 462.835 232.157C464.339 230.449 465.742 227.968 467.044 224.715C468.386 221.421 469.484 217.456 470.338 212.82L471.009 212.881C470.195 217.598 469.057 221.767 467.593 225.386C466.169 228.965 464.543 231.771 462.713 233.804C460.883 235.797 458.951 236.793 456.918 236.793ZM468.691 236.549C467.755 236.549 467.166 236.122 466.922 235.268C466.718 234.373 466.82 232.808 467.227 230.571L470.338 212.82C470.419 212.251 470.948 211.966 471.924 211.966C472.452 211.966 472.798 212.007 472.961 212.088C473.123 212.129 473.205 212.21 473.205 212.332C473.205 212.454 473.103 213.003 472.9 213.979C472.696 214.914 472.493 215.911 472.29 216.968L469.789 230.571C469.382 233.052 469.728 234.292 470.826 234.292C471.314 234.292 471.944 234.048 472.717 233.56C473.489 233.072 474.323 232.36 475.218 231.425C475.34 231.262 475.482 231.283 475.645 231.486C475.848 231.649 475.868 231.791 475.706 231.913C474.323 233.458 473.062 234.617 471.924 235.39C470.826 236.163 469.748 236.549 468.691 236.549ZM485.094 236.793C483.346 236.793 482.166 236.163 481.556 234.902C480.987 233.641 481.007 231.588 481.617 228.741L483.813 217.883C484.057 216.622 484.078 215.687 483.874 215.077C483.671 214.467 483.305 214.162 482.776 214.162C482.329 214.162 481.739 214.426 481.007 214.955C480.275 215.484 479.462 216.216 478.567 217.151C478.405 217.314 478.242 217.314 478.079 217.151C477.917 216.988 477.917 216.826 478.079 216.663C479.421 215.118 480.641 213.938 481.739 213.125C482.837 212.312 483.895 211.905 484.911 211.905C485.847 211.905 486.436 212.352 486.68 213.247C486.965 214.101 486.863 215.646 486.375 217.883L484.423 227.582C483.895 230.022 483.834 231.832 484.24 233.011C484.647 234.15 485.501 234.719 486.802 234.719C488.144 234.719 489.547 233.865 491.011 232.157C492.516 230.449 493.919 227.968 495.22 224.715C496.562 221.421 497.66 217.456 498.514 212.82L499.185 212.881C498.372 217.598 497.233 221.767 495.769 225.386C494.346 228.965 492.719 231.771 490.889 233.804C489.059 235.797 487.128 236.793 485.094 236.793ZM496.867 236.549C495.932 236.549 495.342 236.122 495.098 235.268C494.895 234.373 494.997 232.808 495.403 230.571L498.514 212.82C498.596 212.251 499.124 211.966 500.1 211.966C500.629 211.966 500.975 212.007 501.137 212.088C501.3 212.129 501.381 212.21 501.381 212.332C501.381 212.454 501.28 213.003 501.076 213.979C500.873 214.914 500.67 215.911 500.466 216.968L497.965 230.571C497.559 233.052 497.904 234.292 499.002 234.292C499.49 234.292 500.121 234.048 500.893 233.56C501.666 233.072 502.5 232.36 503.394 231.425C503.516 231.262 503.659 231.283 503.821 231.486C504.025 231.649 504.045 231.791 503.882 231.913C502.5 233.458 501.239 234.617 500.1 235.39C499.002 236.163 497.925 236.549 496.867 236.549ZM493.085 207.818C492.109 207.818 491.174 207.635 490.279 207.269C489.425 206.862 488.673 206.273 488.022 205.5C487.412 204.687 487.006 203.69 486.802 202.511C486.762 202.308 486.843 202.145 487.046 202.023C487.29 201.901 487.575 201.799 487.9 201.718C488.266 201.637 488.592 201.596 488.876 201.596C489.161 201.596 489.324 201.657 489.364 201.779C489.812 203.162 490.503 204.219 491.438 204.951C492.414 205.683 493.451 206.049 494.549 206.049C495.647 206.049 496.745 205.703 497.843 205.012C498.982 204.28 499.958 203.243 500.771 201.901C500.853 201.698 501.015 201.657 501.259 201.779C501.544 201.901 501.646 202.043 501.564 202.206C500.588 204.117 499.307 205.541 497.721 206.476C496.135 207.371 494.59 207.818 493.085 207.818ZM526.226 236.854C525.128 236.854 524.172 236.61 523.359 236.122C522.546 235.675 521.956 235.065 521.59 234.292C521.224 233.519 521.122 232.645 521.285 231.669C521.61 229.88 522.485 228.334 523.908 227.033C525.372 225.691 526.978 224.451 528.727 223.312C530.557 222.092 531.818 221.075 532.509 220.262C533.2 219.408 533.627 218.452 533.79 217.395C533.871 216.948 533.851 216.399 533.729 215.748C533.607 215.097 533.302 214.528 532.814 214.04C532.367 213.552 531.614 213.308 530.557 213.308C529.134 213.308 527.893 213.796 526.836 214.772C525.779 215.748 524.823 216.765 523.969 217.822C523.888 217.903 523.745 217.883 523.542 217.761C523.339 217.639 523.278 217.517 523.359 217.395C524.742 215.484 526.226 214.06 527.812 213.125C529.439 212.149 531.004 211.661 532.509 211.661C533.322 211.661 534.095 211.803 534.827 212.088C535.559 212.373 536.128 212.82 536.535 213.43C536.942 214.04 537.043 214.853 536.84 215.87C536.555 217.456 535.783 218.818 534.522 219.957C533.302 221.096 531.96 222.194 530.496 223.251C528.991 224.308 527.629 225.386 526.409 226.484C525.23 227.582 524.498 228.904 524.213 230.449C524.05 231.547 524.315 232.625 525.006 233.682C525.697 234.699 526.795 235.207 528.3 235.207C529.601 235.207 530.781 234.821 531.838 234.048C532.895 233.235 533.851 232.36 534.705 231.425C534.827 231.344 534.969 231.364 535.132 231.486C535.335 231.567 535.396 231.689 535.315 231.852C534.054 233.519 532.57 234.78 530.862 235.634C529.195 236.447 527.649 236.854 526.226 236.854ZM548.446 236.854C546.576 236.854 545.01 236.305 543.749 235.207C542.529 234.068 541.675 232.543 541.187 230.632C540.74 228.721 540.74 226.586 541.187 224.227C541.635 221.868 542.468 219.754 543.688 217.883C544.949 215.972 546.454 214.467 548.202 213.369C549.992 212.23 551.883 211.661 553.875 211.661C555.949 211.661 557.617 212.251 558.877 213.43C560.138 214.569 560.972 216.094 561.378 218.005C561.785 219.916 561.765 221.99 561.317 224.227C560.829 226.748 559.914 228.965 558.572 230.876C557.23 232.787 555.665 234.272 553.875 235.329C552.086 236.346 550.276 236.854 548.446 236.854ZM550.581 235.329C552.371 235.329 554.018 234.597 555.522 233.133C557.027 231.669 558.023 229.595 558.511 226.911C558.796 225.488 558.877 223.983 558.755 222.397C558.674 220.811 558.369 219.327 557.84 217.944C557.352 216.521 556.62 215.362 555.644 214.467C554.709 213.572 553.53 213.125 552.106 213.125C550.276 213.125 548.589 213.898 547.043 215.443C545.539 216.988 544.522 219.042 543.993 221.604C543.668 223.109 543.566 224.654 543.688 226.24C543.81 227.826 544.136 229.31 544.664 230.693C545.234 232.076 546.006 233.194 546.982 234.048C547.999 234.902 549.199 235.329 550.581 235.329ZM573.303 236.854C571.595 236.854 570.192 236.488 569.094 235.756C567.996 235.024 567.142 234.068 566.532 232.889C565.962 231.71 565.596 230.429 565.434 229.046C565.271 227.663 565.312 226.301 565.556 224.959C566.125 221.787 567.121 219.266 568.545 217.395C570.009 215.524 571.635 214.182 573.425 213.369C575.255 212.515 576.983 212.088 578.61 212.088C580.033 212.088 581.294 212.373 582.392 212.942C583.53 213.471 584.547 214.203 585.442 215.138L584.649 217.639C583.835 216.053 582.758 214.935 581.416 214.284C580.074 213.633 578.752 213.308 577.451 213.308C576.19 213.308 574.929 213.593 573.669 214.162C572.408 214.691 571.29 215.626 570.314 216.968C569.378 218.269 568.707 220.099 568.301 222.458C568.057 223.881 567.975 225.345 568.057 226.85C568.179 228.314 568.484 229.697 568.972 230.998C569.46 232.259 570.171 233.275 571.107 234.048C572.042 234.821 573.242 235.207 574.706 235.207C576.658 235.207 578.325 234.251 579.708 232.34C581.09 230.429 582.188 227.297 583.002 222.946C583.408 220.75 583.713 218.493 583.917 216.175C584.12 213.816 584.181 211.519 584.1 209.282C584.018 207.045 583.795 204.931 583.429 202.938C583.063 200.945 582.514 199.197 581.782 197.692C581.09 196.187 580.196 195.008 579.098 194.154C578.04 193.259 576.759 192.812 575.255 192.812C573.953 192.812 572.652 193.198 571.351 193.971C571.188 194.012 571.046 193.951 570.924 193.788C570.842 193.585 570.842 193.463 570.924 193.422C571.534 192.975 572.327 192.548 573.303 192.141C574.319 191.734 575.438 191.531 576.658 191.531C578.488 191.531 580.053 192.08 581.355 193.178C582.697 194.235 583.774 195.72 584.588 197.631C585.442 199.502 586.052 201.677 586.418 204.158C586.784 206.598 586.926 209.221 586.845 212.027C586.763 214.792 586.479 217.619 585.991 220.506C585.421 223.963 584.527 226.911 583.307 229.351C582.127 231.791 580.684 233.662 578.976 234.963C577.308 236.224 575.417 236.854 573.303 236.854ZM598.69 212.393C598.527 212.637 598.181 212.739 597.653 212.698C597.124 212.657 596.575 212.556 596.006 212.393C595.436 212.19 594.969 211.986 594.603 211.783C594.277 211.58 594.176 211.437 594.298 211.356L603.265 206.049C603.346 205.968 603.468 205.988 603.631 206.11C603.793 206.232 603.834 206.334 603.753 206.415L598.69 212.393ZM607.23 216.785L604.912 206.659C604.871 206.578 604.932 206.476 605.095 206.354C605.257 206.191 605.359 206.151 605.4 206.232L609.609 212.942C609.771 213.186 609.751 213.552 609.548 214.04C609.344 214.528 609.06 215.016 608.694 215.504C608.328 215.992 608.002 216.378 607.718 216.663C607.433 216.907 607.27 216.948 607.23 216.785ZM603.082 204.829L595.823 201.901C595.538 201.779 595.335 201.474 595.213 200.986C595.091 200.457 595.03 199.888 595.03 199.278C595.03 198.668 595.07 198.18 595.152 197.814C595.233 197.407 595.335 197.265 595.457 197.387L603.326 204.28C603.407 204.321 603.407 204.443 603.326 204.646C603.285 204.809 603.204 204.87 603.082 204.829ZM616.38 206.232L606.01 205.317C605.928 205.317 605.847 205.236 605.766 205.073C605.725 204.87 605.745 204.748 605.827 204.707L613.513 202.816C613.797 202.735 614.143 202.877 614.55 203.243C614.956 203.568 615.322 203.975 615.648 204.463C616.014 204.91 616.278 205.317 616.441 205.683C616.603 206.049 616.583 206.232 616.38 206.232ZM604.424 203.731L605.034 195.923C605.034 195.598 605.257 195.313 605.705 195.069C606.152 194.784 606.66 194.561 607.23 194.398C607.799 194.195 608.287 194.073 608.694 194.032C609.1 193.991 609.263 194.052 609.182 194.215L605.095 203.731C605.054 203.853 604.932 203.914 604.729 203.914C604.525 203.914 604.424 203.853 604.424 203.731Z" fill="white"></path> </svg> 