<?xml version="1.0" encoding="UTF-8"?> <svg xmlns="http://www.w3.org/2000/svg" width="164" height="165" viewBox="0 0 164 165" fill="none"> <ellipse cx="82.5" cy="82" rx="28.5" ry="30" fill="#86B9B4"></ellipse> <circle cx="82.5" cy="80.5" r="26.5" fill="#1C1C1C"></circle> <path d="M87.868 72.908C87.868 73.332 87.732 73.676 87.46 73.94C87.196 74.204 86.752 74.336 86.128 74.336H81.352L80.728 77.96C81.512 77.8 82.228 77.72 82.876 77.72C83.788 77.72 84.588 77.856 85.276 78.128C85.972 78.4 86.556 78.776 87.028 79.256C87.5 79.736 87.856 80.3 88.096 80.948C88.336 81.588 88.456 82.28 88.456 83.024C88.456 83.944 88.292 84.784 87.964 85.544C87.644 86.304 87.196 86.956 86.62 87.5C86.044 88.036 85.36 88.452 84.568 88.748C83.784 89.044 82.928 89.192 82 89.192C81.456 89.192 80.94 89.136 80.452 89.024C79.964 88.912 79.504 88.764 79.072 88.58C78.648 88.388 78.252 88.172 77.884 87.932C77.524 87.684 77.2 87.424 76.912 87.152L77.824 85.892C78.016 85.62 78.272 85.484 78.592 85.484C78.792 85.484 78.992 85.548 79.192 85.676C79.4 85.804 79.64 85.944 79.912 86.096C80.184 86.248 80.5 86.388 80.86 86.516C81.22 86.644 81.656 86.708 82.168 86.708C82.712 86.708 83.192 86.62 83.608 86.444C84.024 86.268 84.368 86.024 84.64 85.712C84.92 85.392 85.128 85.016 85.264 84.584C85.408 84.144 85.48 83.668 85.48 83.156C85.48 82.212 85.204 81.476 84.652 80.948C84.108 80.412 83.304 80.144 82.24 80.144C81.4 80.144 80.556 80.296 79.708 80.6L77.86 80.072L79.3 71.648H87.868V72.908Z" fill="white"></path> </svg> 